<?xml version="1.0" encoding="UTF-8" standalone="no"?>
<!DOCTYPE svg PUBLIC "-//W3C//DTD SVG 1.1//EN"
 "http://www.w3.org/Graphics/SVG/1.1/DTD/svg11.dtd">
<!-- Generated by graphviz version 2.38.0 (20140413.2041)
 -->
<!-- Title: G Pages: 1 -->
<svg width="1535pt" height="818pt"
 viewBox="0.00 0.00 1534.83 817.84" xmlns="http://www.w3.org/2000/svg" xmlns:xlink="http://www.w3.org/1999/xlink">
<g id="graph0" class="graph" transform="scale(1 1) rotate(0) translate(4 813.845)">
<title>G</title>
<polygon fill="white" stroke="none" points="-4,4 -4,-813.845 1530.83,-813.845 1530.83,4 -4,4"/>
<!-- cmd_line_bot_ends -->
<g id="node1" class="node"><title>cmd_line_bot_ends</title>
<ellipse fill="#c24747" stroke="black" cx="1150.02" cy="-216.957" rx="54.3945" ry="21.4286"/>
<text text-anchor="middle" x="1150.02" y="-219.957" font-family="Helvetica,sans-Serif" font-size="10.00" fill="#ffffff">cmd_line_bot.</text>
<text text-anchor="middle" x="1150.02" y="-208.957" font-family="Helvetica,sans-Serif" font-size="10.00" fill="#ffffff">ends</text>
</g>
<!-- cmd_line_bot_virtual_contest_watcher_avc_backend -->
<g id="node2" class="node"><title>cmd_line_bot_virtual_contest_watcher_avc_backend</title>
<ellipse fill="#883a3a" stroke="black" cx="760.022" cy="-28.9914" rx="86.9483" ry="28.9828"/>
<text text-anchor="middle" x="760.022" y="-37.4914" font-family="Helvetica,sans-Serif" font-size="10.00" fill="#ffffff">cmd_line_bot.</text>
<text text-anchor="middle" x="760.022" y="-26.4914" font-family="Helvetica,sans-Serif" font-size="10.00" fill="#ffffff">virtual_contest_watcher.</text>
<text text-anchor="middle" x="760.022" y="-15.4914" font-family="Helvetica,sans-Serif" font-size="10.00" fill="#ffffff">avc_backend</text>
</g>
<!-- cmd_line_bot_ends&#45;&gt;cmd_line_bot_virtual_contest_watcher_avc_backend -->
<g id="edge1" class="edge"><title>cmd_line_bot_ends&#45;&gt;cmd_line_bot_virtual_contest_watcher_avc_backend</title>
<path fill="none" stroke="black" d="M1158.24,-195.614C1165.95,-172.881 1173.2,-137.492 1150.02,-123.974"/>
</g>
<!-- cmd_line_bot_core_clb_error -->
<g id="node3" class="node"><title>cmd_line_bot_core_clb_error</title>
<ellipse fill="#f91010" stroke="black" cx="957.022" cy="-498.905" rx="54.3945" ry="28.9828"/>
<text text-anchor="middle" x="957.022" y="-507.405" font-family="Helvetica,sans-Serif" font-size="10.00" fill="#ffffff">cmd_line_bot.</text>
<text text-anchor="middle" x="957.022" y="-496.405" font-family="Helvetica,sans-Serif" font-size="10.00" fill="#ffffff">core.</text>
<text text-anchor="middle" x="957.022" y="-485.405" font-family="Helvetica,sans-Serif" font-size="10.00" fill="#ffffff">clb_error</text>
</g>
<!-- cmd_line_bot_core_clb_error&#45;&gt;cmd_line_bot_virtual_contest_watcher_avc_backend -->
<g id="edge2" class="edge"><title>cmd_line_bot_core_clb_error&#45;&gt;cmd_line_bot_virtual_contest_watcher_avc_backend</title>
<path fill="none" stroke="black" d="M1086.02,-403.922C1096.61,-351.959 1137.66,-359.04 1162.02,-311.94"/>
<path fill="none" stroke="black" d="M1162.02,-309.94C1188.88,-258.023 1066.74,-276.395 1068.02,-217.957"/>
</g>
<!-- cmd_line_bot_ends_cmd_arg_backend -->
<g id="node4" class="node"><title>cmd_line_bot_ends_cmd_arg_backend</title>
<ellipse fill="#ac2b2b" stroke="black" cx="808.022" cy="-216.957" rx="67.7647" ry="28.9828"/>
<text text-anchor="middle" x="808.022" y="-225.457" font-family="Helvetica,sans-Serif" font-size="10.00" fill="#ffffff">cmd_line_bot.</text>
<text text-anchor="middle" x="808.022" y="-214.457" font-family="Helvetica,sans-Serif" font-size="10.00" fill="#ffffff">ends.</text>
<text text-anchor="middle" x="808.022" y="-203.457" font-family="Helvetica,sans-Serif" font-size="10.00" fill="#ffffff">cmd_arg_backend</text>
</g>
<!-- cmd_line_bot_core_clb_error&#45;&gt;cmd_line_bot_ends_cmd_arg_backend -->
<g id="edge39" class="edge"><title>cmd_line_bot_core_clb_error&#45;&gt;cmd_line_bot_ends_cmd_arg_backend</title>
<path fill="none" stroke="black" d="M1086.02,-403.922C1088.31,-394.161 961.414,-287.433 953.022,-281.948 926.958,-264.913 895.605,-250.435 868.731,-239.582"/>
<polygon fill="black" stroke="black" points="870.015,-236.326 859.429,-235.896 867.436,-242.833 870.015,-236.326"/>
</g>
<!-- cmd_line_bot_core_clb_data -->
<g id="node7" class="node"><title>cmd_line_bot_core_clb_data</title>
<ellipse fill="#dd1818" stroke="black" cx="1168.02" cy="-404.922" rx="54.3945" ry="28.9828"/>
<text text-anchor="middle" x="1168.02" y="-413.422" font-family="Helvetica,sans-Serif" font-size="10.00" fill="#ffffff">cmd_line_bot.</text>
<text text-anchor="middle" x="1168.02" y="-402.422" font-family="Helvetica,sans-Serif" font-size="10.00" fill="#ffffff">core.</text>
<text text-anchor="middle" x="1168.02" y="-391.422" font-family="Helvetica,sans-Serif" font-size="10.00" fill="#ffffff">clb_data</text>
</g>
<!-- cmd_line_bot_core_clb_error&#45;&gt;cmd_line_bot_core_clb_data -->
<g id="edge49" class="edge"><title>cmd_line_bot_core_clb_error&#45;&gt;cmd_line_bot_core_clb_data</title>
<path fill="none" stroke="black" d="M998.457,-479.842C1032.5,-465.001 1080.87,-443.917 1117.24,-428.061"/>
<polygon fill="black" stroke="black" points="1118.91,-431.149 1126.68,-423.944 1116.12,-424.732 1118.91,-431.149"/>
</g>
<!-- cmd_line_bot_virtual_contest_watcher_avc -->
<g id="node8" class="node"><title>cmd_line_bot_virtual_contest_watcher_avc</title>
<ellipse fill="#a13535" stroke="black" cx="1309.02" cy="-216.957" rx="86.9483" ry="28.9828"/>
<text text-anchor="middle" x="1309.02" y="-225.457" font-family="Helvetica,sans-Serif" font-size="10.00" fill="#ffffff">cmd_line_bot.</text>
<text text-anchor="middle" x="1309.02" y="-214.457" font-family="Helvetica,sans-Serif" font-size="10.00" fill="#ffffff">virtual_contest_watcher.</text>
<text text-anchor="middle" x="1309.02" y="-203.457" font-family="Helvetica,sans-Serif" font-size="10.00" fill="#ffffff">avc</text>
</g>
<!-- cmd_line_bot_core_clb_error&#45;&gt;cmd_line_bot_virtual_contest_watcher_avc -->
<g id="edge8" class="edge"><title>cmd_line_bot_core_clb_error&#45;&gt;cmd_line_bot_virtual_contest_watcher_avc</title>
<path fill="none" stroke="black" d="M1162.02,-309.94C1178.13,-278.801 1210,-256.958 1239.96,-242.397"/>
<polygon fill="black" stroke="black" points="1241.59,-245.501 1249.18,-238.11 1238.64,-239.154 1241.59,-245.501"/>
</g>
<!-- cmd_line_bot_core_cmd_line_bot -->
<g id="node11" class="node"><title>cmd_line_bot_core_cmd_line_bot</title>
<ellipse fill="#e50505" stroke="black" cx="520.022" cy="-404.922" rx="54.3945" ry="28.9828"/>
<text text-anchor="middle" x="520.022" y="-413.422" font-family="Helvetica,sans-Serif" font-size="10.00" fill="#ffffff">cmd_line_bot.</text>
<text text-anchor="middle" x="520.022" y="-402.422" font-family="Helvetica,sans-Serif" font-size="10.00" fill="#ffffff">core.</text>
<text text-anchor="middle" x="520.022" y="-391.422" font-family="Helvetica,sans-Serif" font-size="10.00" fill="#ffffff">cmd_line_bot</text>
</g>
<!-- cmd_line_bot_core_clb_error&#45;&gt;cmd_line_bot_core_cmd_line_bot -->
<g id="edge46" class="edge"><title>cmd_line_bot_core_clb_error&#45;&gt;cmd_line_bot_core_cmd_line_bot</title>
<path fill="none" stroke="black" d="M906.892,-487.354C826.023,-470.332 667.076,-436.875 580.208,-418.591"/>
<polygon fill="black" stroke="black" points="580.744,-415.127 570.238,-416.492 579.303,-421.977 580.744,-415.127"/>
</g>
<!-- cmd_line_bot_ends_discord_frontend -->
<g id="node16" class="node"><title>cmd_line_bot_ends_discord_frontend</title>
<ellipse fill="#883a3a" stroke="black" cx="144.022" cy="-216.957" rx="62.8651" ry="28.9828"/>
<text text-anchor="middle" x="144.022" y="-225.457" font-family="Helvetica,sans-Serif" font-size="10.00" fill="#ffffff">cmd_line_bot.</text>
<text text-anchor="middle" x="144.022" y="-214.457" font-family="Helvetica,sans-Serif" font-size="10.00" fill="#ffffff">ends.</text>
<text text-anchor="middle" x="144.022" y="-203.457" font-family="Helvetica,sans-Serif" font-size="10.00" fill="#ffffff">discord_frontend</text>
</g>
<!-- cmd_line_bot_core_clb_error&#45;&gt;cmd_line_bot_ends_discord_frontend -->
<g id="edge23" class="edge"><title>cmd_line_bot_core_clb_error&#45;&gt;cmd_line_bot_ends_discord_frontend</title>
<path fill="none" stroke="black" d="M904.787,-489.99C865.767,-484.17 811.103,-476.21 763.022,-469.914 627.243,-452.134 586.648,-478.061 457.022,-433.914 418.531,-420.805 327.667,-369.75 300.022,-339.931 290.565,-329.73 295.795,-321.838 286.022,-311.94"/>
</g>
<!-- cmd_line_bot_ends_example_backend -->
<g id="node19" class="node"><title>cmd_line_bot_ends_example_backend</title>
<ellipse fill="#9d4343" stroke="black" cx="855.022" cy="-122.974" rx="67.3507" ry="28.9828"/>
<text text-anchor="middle" x="855.022" y="-131.474" font-family="Helvetica,sans-Serif" font-size="10.00" fill="#ffffff">cmd_line_bot.</text>
<text text-anchor="middle" x="855.022" y="-120.474" font-family="Helvetica,sans-Serif" font-size="10.00" fill="#ffffff">ends.</text>
<text text-anchor="middle" x="855.022" y="-109.474" font-family="Helvetica,sans-Serif" font-size="10.00" fill="#ffffff">example_backend</text>
</g>
<!-- cmd_line_bot_core_clb_error&#45;&gt;cmd_line_bot_ends_example_backend -->
<g id="edge31" class="edge"><title>cmd_line_bot_core_clb_error&#45;&gt;cmd_line_bot_ends_example_backend</title>
<path fill="none" stroke="black" d="M1086.02,-403.922C1103.75,-319.445 1073.93,-292.272 1030.02,-217.957"/>
</g>
<!-- cmd_line_bot_ends_parser -->
<g id="node21" class="node"><title>cmd_line_bot_ends_parser</title>
<ellipse fill="#b83d3d" stroke="black" cx="890.022" cy="-310.94" rx="54.3945" ry="28.9828"/>
<text text-anchor="middle" x="890.022" y="-319.44" font-family="Helvetica,sans-Serif" font-size="10.00" fill="#ffffff">cmd_line_bot.</text>
<text text-anchor="middle" x="890.022" y="-308.44" font-family="Helvetica,sans-Serif" font-size="10.00" fill="#ffffff">ends.</text>
<text text-anchor="middle" x="890.022" y="-297.44" font-family="Helvetica,sans-Serif" font-size="10.00" fill="#ffffff">parser</text>
</g>
<!-- cmd_line_bot_core_clb_error&#45;&gt;cmd_line_bot_ends_parser -->
<g id="edge44" class="edge"><title>cmd_line_bot_core_clb_error&#45;&gt;cmd_line_bot_ends_parser</title>
<path fill="none" stroke="black" d="M1002.93,-483.208C1036.19,-469.441 1076.86,-445.021 1086.02,-405.922"/>
<path fill="none" stroke="black" d="M1086.02,-403.922C1093.13,-373.589 1008.85,-343.971 948.553,-326.86"/>
<polygon fill="black" stroke="black" points="949.298,-323.435 938.726,-324.121 947.419,-330.178 949.298,-323.435"/>
</g>
<!-- cmd_line_bot_ends_cmd_arg_backend&#45;&gt;cmd_line_bot_virtual_contest_watcher_avc_backend -->
<g id="edge3" class="edge"><title>cmd_line_bot_ends_cmd_arg_backend&#45;&gt;cmd_line_bot_virtual_contest_watcher_avc_backend</title>
<path fill="none" stroke="black" d="M793.628,-188.554C788.327,-177.455 782.719,-164.355 779.022,-151.966 770.854,-124.595 766.041,-92.6637 763.303,-68.3389"/>
<polygon fill="black" stroke="black" points="766.751,-67.6564 762.22,-58.0791 759.789,-68.3913 766.751,-67.6564"/>
</g>
<!-- cmd_line_bot_ends_cmd_arg_backend&#45;&gt;cmd_line_bot_ends_example_backend -->
<g id="edge33" class="edge"><title>cmd_line_bot_ends_cmd_arg_backend&#45;&gt;cmd_line_bot_ends_example_backend</title>
<path fill="none" stroke="black" d="M822.123,-188.359C826.585,-179.628 831.587,-169.837 836.319,-160.577"/>
<polygon fill="black" stroke="black" points="839.497,-162.05 840.93,-151.553 833.263,-158.865 839.497,-162.05"/>
</g>
<!-- cmd_line_bot_core_clb_interface -->
<g id="node5" class="node"><title>cmd_line_bot_core_clb_interface</title>
<ellipse fill="#f91010" stroke="black" cx="438.022" cy="-498.905" rx="54.3945" ry="28.9828"/>
<text text-anchor="middle" x="438.022" y="-507.405" font-family="Helvetica,sans-Serif" font-size="10.00" fill="#ffffff">cmd_line_bot.</text>
<text text-anchor="middle" x="438.022" y="-496.405" font-family="Helvetica,sans-Serif" font-size="10.00" fill="#ffffff">core.</text>
<text text-anchor="middle" x="438.022" y="-485.405" font-family="Helvetica,sans-Serif" font-size="10.00" fill="#ffffff">clb_interface</text>
</g>
<!-- cmd_line_bot_core_clb_interface&#45;&gt;cmd_line_bot_virtual_contest_watcher_avc_backend -->
<g id="edge4" class="edge"><title>cmd_line_bot_core_clb_interface&#45;&gt;cmd_line_bot_virtual_contest_watcher_avc_backend</title>
<path fill="none" stroke="black" d="M383.913,-494.732C319.084,-488.152 210.867,-467.944 144.022,-405.922"/>
<path fill="none" stroke="black" d="M144.022,-403.922C68.2881,-333.654 -6.51503,-268.639 58.0218,-187.966 133.1,-94.1145 491.908,-52.0989 665.512,-37.0175"/>
<polygon fill="black" stroke="black" points="665.998,-40.4888 675.663,-36.1481 665.401,-33.5143 665.998,-40.4888"/>
</g>
<!-- cmd_line_bot_core_clb_interface&#45;&gt;cmd_line_bot_ends_cmd_arg_backend -->
<g id="edge40" class="edge"><title>cmd_line_bot_core_clb_interface&#45;&gt;cmd_line_bot_ends_cmd_arg_backend</title>
<path fill="none" stroke="black" d="M662.022,-309.94C677.875,-275.965 713.119,-253.225 745.007,-238.856"/>
<polygon fill="black" stroke="black" points="746.529,-242.011 754.33,-234.842 743.761,-235.582 746.529,-242.011"/>
</g>
<!-- cmd_line_bot_core_clb_interface&#45;&gt;cmd_line_bot_core_cmd_line_bot -->
<g id="edge48" class="edge"><title>cmd_line_bot_core_clb_interface&#45;&gt;cmd_line_bot_core_cmd_line_bot</title>
<path fill="none" stroke="black" d="M460.863,-472.283C470.015,-462.017 480.68,-450.054 490.414,-439.134"/>
<polygon fill="black" stroke="black" points="493.261,-441.201 497.303,-431.407 488.036,-436.543 493.261,-441.201"/>
</g>
<!-- cmd_line_bot_ends_cron_frontend -->
<g id="node12" class="node"><title>cmd_line_bot_ends_cron_frontend</title>
<ellipse fill="#a44646" stroke="black" cx="592.022" cy="-216.957" rx="54.3945" ry="28.9828"/>
<text text-anchor="middle" x="592.022" y="-225.457" font-family="Helvetica,sans-Serif" font-size="10.00" fill="#ffffff">cmd_line_bot.</text>
<text text-anchor="middle" x="592.022" y="-214.457" font-family="Helvetica,sans-Serif" font-size="10.00" fill="#ffffff">ends.</text>
<text text-anchor="middle" x="592.022" y="-203.457" font-family="Helvetica,sans-Serif" font-size="10.00" fill="#ffffff">cron_frontend</text>
</g>
<!-- cmd_line_bot_core_clb_interface&#45;&gt;cmd_line_bot_ends_cron_frontend -->
<g id="edge14" class="edge"><title>cmd_line_bot_core_clb_interface&#45;&gt;cmd_line_bot_ends_cron_frontend</title>
<path fill="none" stroke="black" d="M479.016,-479.66C486.341,-476.408 493.905,-473.057 501.022,-469.914 537.431,-453.833 552.705,-459.703 583.022,-433.914 632.218,-392.065 649.69,-375.339 662.022,-311.94"/>
<path fill="none" stroke="black" d="M662.022,-309.94C673.007,-286.397 654.98,-263.142 634.475,-245.905"/>
<polygon fill="black" stroke="black" points="636.556,-243.088 626.55,-239.605 632.2,-248.567 636.556,-243.088"/>
</g>
<!-- cmd_line_bot_ends_trivial_ends -->
<g id="node13" class="node"><title>cmd_line_bot_ends_trivial_ends</title>
<ellipse fill="#a44646" stroke="black" cx="279.022" cy="-216.957" rx="54.3945" ry="28.9828"/>
<text text-anchor="middle" x="279.022" y="-225.457" font-family="Helvetica,sans-Serif" font-size="10.00" fill="#ffffff">cmd_line_bot.</text>
<text text-anchor="middle" x="279.022" y="-214.457" font-family="Helvetica,sans-Serif" font-size="10.00" fill="#ffffff">ends.</text>
<text text-anchor="middle" x="279.022" y="-203.457" font-family="Helvetica,sans-Serif" font-size="10.00" fill="#ffffff">trivial_ends</text>
</g>
<!-- cmd_line_bot_core_clb_interface&#45;&gt;cmd_line_bot_ends_trivial_ends -->
<g id="edge17" class="edge"><title>cmd_line_bot_core_clb_interface&#45;&gt;cmd_line_bot_ends_trivial_ends</title>
<path fill="none" stroke="black" d="M415.141,-472.438C405.53,-461.087 394.613,-447.281 386.022,-433.914 347.745,-374.354 313.323,-299.185 294.381,-255.059"/>
<polygon fill="black" stroke="black" points="297.492,-253.43 290.354,-245.6 291.051,-256.172 297.492,-253.43"/>
</g>
<!-- cmd_line_bot_ends_ipc_frontend -->
<g id="node14" class="node"><title>cmd_line_bot_ends_ipc_frontend</title>
<ellipse fill="#9d4343" stroke="black" cx="594.022" cy="-122.974" rx="54.3945" ry="28.9828"/>
<text text-anchor="middle" x="594.022" y="-131.474" font-family="Helvetica,sans-Serif" font-size="10.00" fill="#ffffff">cmd_line_bot.</text>
<text text-anchor="middle" x="594.022" y="-120.474" font-family="Helvetica,sans-Serif" font-size="10.00" fill="#ffffff">ends.</text>
<text text-anchor="middle" x="594.022" y="-109.474" font-family="Helvetica,sans-Serif" font-size="10.00" fill="#ffffff">ipc_frontend</text>
</g>
<!-- cmd_line_bot_core_clb_interface&#45;&gt;cmd_line_bot_ends_ipc_frontend -->
<g id="edge20" class="edge"><title>cmd_line_bot_core_clb_interface&#45;&gt;cmd_line_bot_ends_ipc_frontend</title>
<path fill="none" stroke="black" d="M144.022,-403.922C114.053,-376.117 153.16,-351.786 144.022,-311.94"/>
<path fill="none" stroke="black" d="M144.022,-309.94C134.452,-268.211 89.5613,-285.003 72.0218,-245.948 61.4641,-222.44 54.9442,-207.265 72.0218,-187.966 101.912,-154.187 396.668,-134.428 529.59,-127.172"/>
<polygon fill="black" stroke="black" points="529.845,-130.663 539.642,-126.63 529.468,-123.673 529.845,-130.663"/>
</g>
<!-- cmd_line_bot_core_clb_interface&#45;&gt;cmd_line_bot_ends_discord_frontend -->
<g id="edge24" class="edge"><title>cmd_line_bot_core_clb_interface&#45;&gt;cmd_line_bot_ends_discord_frontend</title>
<path fill="none" stroke="black" d="M144.022,-309.94C140.069,-292.702 139.536,-273.166 140.204,-256.544"/>
<polygon fill="black" stroke="black" points="143.724,-256.277 140.792,-246.096 136.735,-255.884 143.724,-256.277"/>
</g>
<!-- cmd_line_bot_core_clb_interface&#45;&gt;cmd_line_bot_ends_example_backend -->
<g id="edge32" class="edge"><title>cmd_line_bot_core_clb_interface&#45;&gt;cmd_line_bot_ends_example_backend</title>
<path fill="none" stroke="black" d="M477.441,-478.59C485.132,-475.339 493.23,-472.263 501.022,-469.914 592.946,-442.205 649.555,-505.06 714.022,-433.914 787.595,-352.718 670.819,-279.516 731.022,-187.966 744.648,-167.244 767.207,-152.862 789.374,-143.063"/>
<polygon fill="black" stroke="black" points="790.93,-146.206 798.823,-139.139 788.245,-139.742 790.93,-146.206"/>
</g>
<!-- cmd_line_bot_ends_terminal_frontend -->
<g id="node20" class="node"><title>cmd_line_bot_ends_terminal_frontend</title>
<ellipse fill="#a44646" stroke="black" cx="417.022" cy="-216.957" rx="65.1077" ry="28.9828"/>
<text text-anchor="middle" x="417.022" y="-225.457" font-family="Helvetica,sans-Serif" font-size="10.00" fill="#ffffff">cmd_line_bot.</text>
<text text-anchor="middle" x="417.022" y="-214.457" font-family="Helvetica,sans-Serif" font-size="10.00" fill="#ffffff">ends.</text>
<text text-anchor="middle" x="417.022" y="-203.457" font-family="Helvetica,sans-Serif" font-size="10.00" fill="#ffffff">terminal_frontend</text>
</g>
<!-- cmd_line_bot_core_clb_interface&#45;&gt;cmd_line_bot_ends_terminal_frontend -->
<g id="edge37" class="edge"><title>cmd_line_bot_core_clb_interface&#45;&gt;cmd_line_bot_ends_terminal_frontend</title>
<path fill="none" stroke="black" d="M435.912,-469.781C432.123,-419.266 424.161,-313.134 419.884,-256.113"/>
<polygon fill="black" stroke="black" points="423.368,-255.773 419.13,-246.062 416.388,-256.296 423.368,-255.773"/>
</g>
<!-- cmd_line_bot_core -->
<g id="node6" class="node"><title>cmd_line_bot_core</title>
<ellipse fill="#f91010" stroke="black" cx="700.022" cy="-498.905" rx="54.3945" ry="21.4286"/>
<text text-anchor="middle" x="700.022" y="-501.905" font-family="Helvetica,sans-Serif" font-size="10.00" fill="#ffffff">cmd_line_bot.</text>
<text text-anchor="middle" x="700.022" y="-490.905" font-family="Helvetica,sans-Serif" font-size="10.00" fill="#ffffff">core</text>
</g>
<!-- cmd_line_bot_core&#45;&gt;cmd_line_bot_virtual_contest_watcher_avc_backend -->
<g id="edge5" class="edge"><title>cmd_line_bot_core&#45;&gt;cmd_line_bot_virtual_contest_watcher_avc_backend</title>
<path fill="none" stroke="black" d="M972.022,-403.922C1014.72,-337.5 1066.87,-366.427 1124.02,-311.94"/>
<path fill="none" stroke="black" d="M1124.02,-309.94C1158.66,-276.913 1066.97,-265.807 1068.02,-217.957"/>
<path fill="none" stroke="black" d="M1068.02,-215.957C1069.22,-161.203 1197.11,-151.944 1150.02,-123.974"/>
<path fill="none" stroke="black" d="M1150.02,-121.974C1058.88,-67.8317 938.042,-45.5543 855.166,-36.3904"/>
<polygon fill="black" stroke="black" points="855.313,-32.8864 844.999,-35.3108 854.573,-39.8472 855.313,-32.8864"/>
</g>
<!-- cmd_line_bot_core&#45;&gt;cmd_line_bot_ends_cmd_arg_backend -->
<g id="edge41" class="edge"><title>cmd_line_bot_core&#45;&gt;cmd_line_bot_ends_cmd_arg_backend</title>
<path fill="none" stroke="black" d="M808.022,-309.94C800.12,-293.489 799.273,-273.396 800.757,-256.19"/>
<polygon fill="black" stroke="black" points="804.274,-256.243 801.94,-245.908 797.32,-255.442 804.274,-256.243"/>
</g>
<!-- cmd_line_bot_core&#45;&gt;cmd_line_bot_virtual_contest_watcher_avc -->
<g id="edge9" class="edge"><title>cmd_line_bot_core&#45;&gt;cmd_line_bot_virtual_contest_watcher_avc</title>
<path fill="none" stroke="black" d="M1124.02,-309.94C1135.88,-298.632 1134.69,-291.472 1148.02,-281.948 1173.64,-263.652 1205.23,-249.619 1233.61,-239.423"/>
<polygon fill="black" stroke="black" points="1234.82,-242.71 1243.1,-236.111 1232.51,-236.101 1234.82,-242.71"/>
</g>
<!-- cmd_line_bot_core&#45;&gt;cmd_line_bot_ends_cron_frontend -->
<g id="edge15" class="edge"><title>cmd_line_bot_core&#45;&gt;cmd_line_bot_ends_cron_frontend</title>
<path fill="none" stroke="black" d="M700.022,-403.922C689.473,-349.689 705.231,-328.846 676.022,-281.948 666.624,-266.858 652.293,-254.019 638.115,-243.89"/>
<polygon fill="black" stroke="black" points="640.059,-240.979 629.824,-238.243 636.119,-246.765 640.059,-240.979"/>
</g>
<!-- cmd_line_bot_core&#45;&gt;cmd_line_bot_ends_trivial_ends -->
<g id="edge18" class="edge"><title>cmd_line_bot_core&#45;&gt;cmd_line_bot_ends_trivial_ends</title>
<path fill="none" stroke="black" d="M667.531,-481.83C657.881,-477.507 647.173,-473.14 637.022,-469.914 559.271,-445.2 521.196,-484.289 457.022,-433.914 409.953,-396.966 440.339,-356.156 400.022,-311.94"/>
<path fill="none" stroke="black" d="M400.022,-309.94C375.297,-286.443 344.692,-263.224 320.448,-245.992"/>
<polygon fill="black" stroke="black" points="322.35,-243.051 312.158,-240.156 318.32,-248.775 322.35,-243.051"/>
</g>
<!-- cmd_line_bot_core&#45;&gt;cmd_line_bot_ends_ipc_frontend -->
<g id="edge21" class="edge"><title>cmd_line_bot_core&#45;&gt;cmd_line_bot_ends_ipc_frontend</title>
<path fill="none" stroke="black" d="M749.052,-489.403C821.345,-475.635 950.352,-445.917 972.022,-405.922"/>
<path fill="none" stroke="black" d="M972.022,-403.922C1005.58,-341.988 881.123,-385.042 827.022,-339.931 815.474,-330.302 814.532,-325.493 808.022,-311.94"/>
<path fill="none" stroke="black" d="M808.022,-309.94C788.755,-269.83 764.755,-274.967 731.022,-245.948 695.604,-215.48 655.788,-179.875 628.246,-155.027"/>
<polygon fill="black" stroke="black" points="630.584,-152.422 620.817,-148.317 625.892,-157.617 630.584,-152.422"/>
</g>
<!-- cmd_line_bot_ends_ipc_server -->
<g id="node15" class="node"><title>cmd_line_bot_ends_ipc_server</title>
<ellipse fill="#b83d3d" stroke="black" cx="948.022" cy="-216.957" rx="54.3945" ry="28.9828"/>
<text text-anchor="middle" x="948.022" y="-225.457" font-family="Helvetica,sans-Serif" font-size="10.00" fill="#ffffff">cmd_line_bot.</text>
<text text-anchor="middle" x="948.022" y="-214.457" font-family="Helvetica,sans-Serif" font-size="10.00" fill="#ffffff">ends.</text>
<text text-anchor="middle" x="948.022" y="-203.457" font-family="Helvetica,sans-Serif" font-size="10.00" fill="#ffffff">ipc_server</text>
</g>
<!-- cmd_line_bot_core&#45;&gt;cmd_line_bot_ends_ipc_server -->
<g id="edge35" class="edge"><title>cmd_line_bot_core&#45;&gt;cmd_line_bot_ends_ipc_server</title>
<path fill="none" stroke="black" d="M808.022,-309.94C801.511,-296.386 815.822,-291.98 827.022,-281.948 838.671,-271.514 870.327,-254.893 898.338,-241.206"/>
<polygon fill="black" stroke="black" points="900.189,-244.198 907.663,-236.69 897.138,-237.898 900.189,-244.198"/>
</g>
<!-- cmd_line_bot_core&#45;&gt;cmd_line_bot_ends_discord_frontend -->
<g id="edge26" class="edge"><title>cmd_line_bot_core&#45;&gt;cmd_line_bot_ends_discord_frontend</title>
<path fill="none" stroke="black" d="M668.322,-481.644C658.509,-477.209 647.516,-472.83 637.022,-469.914 512.309,-435.262 454.021,-508.198 348.022,-433.914 309.612,-406.996 321.179,-381.791 300.022,-339.931 293.747,-327.517 294.824,-322.71 286.022,-311.94"/>
<path fill="none" stroke="black" d="M286.022,-309.94C259.464,-283.042 223.724,-259.943 194.745,-243.621"/>
<polygon fill="black" stroke="black" points="196.43,-240.553 185.986,-238.776 193.042,-246.679 196.43,-240.553"/>
</g>
<!-- cmd_line_bot_core&#45;&gt;cmd_line_bot_ends_example_backend -->
<g id="edge30" class="edge"><title>cmd_line_bot_core&#45;&gt;cmd_line_bot_ends_example_backend</title>
<path fill="none" stroke="black" d="M972.022,-403.922C1013.27,-327.8 1072.87,-293.189 1030.02,-217.957"/>
<path fill="none" stroke="black" d="M1030.02,-215.957C1020.7,-204.162 1022.7,-197.442 1011.02,-187.966 985.089,-166.915 951.283,-151.917 921.773,-141.758"/>
<polygon fill="black" stroke="black" points="922.541,-138.325 911.948,-138.496 920.336,-144.968 922.541,-138.325"/>
</g>
<!-- cmd_line_bot_core&#45;&gt;cmd_line_bot_ends_terminal_frontend -->
<g id="edge38" class="edge"><title>cmd_line_bot_core&#45;&gt;cmd_line_bot_ends_terminal_frontend</title>
<path fill="none" stroke="black" d="M702.581,-477.521C704.347,-458.689 705.503,-430.06 700.022,-405.922"/>
<path fill="none" stroke="black" d="M700.022,-403.922C688.169,-351.723 549.988,-279.691 471.195,-242.452"/>
<polygon fill="black" stroke="black" points="472.432,-239.167 461.893,-238.087 469.459,-245.504 472.432,-239.167"/>
</g>
<!-- cmd_line_bot_core&#45;&gt;cmd_line_bot_ends_parser -->
<g id="edge45" class="edge"><title>cmd_line_bot_core&#45;&gt;cmd_line_bot_ends_parser</title>
<path fill="none" stroke="black" d="M972.022,-403.922C985.757,-378.573 962.306,-354.422 937.015,-337.233"/>
<polygon fill="black" stroke="black" points="938.717,-334.166 928.419,-331.679 934.919,-340.045 938.717,-334.166"/>
</g>
<!-- cmd_line_bot_core_clb_data&#45;&gt;cmd_line_bot_virtual_contest_watcher_avc_backend -->
<g id="edge6" class="edge"><title>cmd_line_bot_core_clb_data&#45;&gt;cmd_line_bot_virtual_contest_watcher_avc_backend</title>
<path fill="none" stroke="black" d="M1212.36,-387.944C1298,-354.674 1472.04,-273.883 1405.02,-187.966 1333.15,-95.8337 1250.95,-182.85 1150.02,-123.974"/>
</g>
<!-- cmd_line_bot_core_clb_data&#45;&gt;cmd_line_bot_virtual_contest_watcher_avc -->
<g id="edge10" class="edge"><title>cmd_line_bot_core_clb_data&#45;&gt;cmd_line_bot_virtual_contest_watcher_avc</title>
<path fill="none" stroke="black" d="M1207.23,-384.67C1233.81,-369.163 1266.63,-344.573 1281.02,-311.94"/>
<path fill="none" stroke="black" d="M1281.02,-309.94C1288.61,-292.738 1294.94,-272.869 1299.65,-256.009"/>
<polygon fill="black" stroke="black" points="1303.14,-256.517 1302.37,-245.95 1296.38,-254.689 1303.14,-256.517"/>
</g>
<!-- cmd_line_bot_core_clb_data&#45;&gt;cmd_line_bot_ends_ipc_server -->
<g id="edge34" class="edge"><title>cmd_line_bot_core_clb_data&#45;&gt;cmd_line_bot_ends_ipc_server</title>
<path fill="none" stroke="black" d="M1139.9,-380.058C1110.89,-355.452 1064.32,-315.982 1024.02,-281.948 1011.16,-271.084 997.054,-259.201 984.526,-248.656"/>
<polygon fill="black" stroke="black" points="986.454,-245.704 976.55,-241.943 981.947,-251.06 986.454,-245.704"/>
</g>
<!-- cmd_line_bot_core_clb_data&#45;&gt;cmd_line_bot_ends_discord_frontend -->
<g id="edge29" class="edge"><title>cmd_line_bot_core_clb_data&#45;&gt;cmd_line_bot_ends_discord_frontend</title>
<path fill="none" stroke="black" d="M1128.08,-385.074C1119.03,-381.486 1109.33,-378.16 1100.02,-375.931 904.035,-329.01 842.854,-391.435 648.022,-339.931 589.204,-324.383 582.543,-298.579 524.022,-281.948 391.45,-244.275 349.775,-279.187 216.022,-245.948 210.269,-244.519 204.355,-242.748 198.509,-240.797"/>
<polygon fill="black" stroke="black" points="199.369,-237.389 188.774,-237.371 197.045,-243.992 199.369,-237.389"/>
</g>
<!-- cmd_line_bot_virtual_contest_watcher_avc&#45;&gt;cmd_line_bot_virtual_contest_watcher_avc_backend -->
<g id="edge7" class="edge"><title>cmd_line_bot_virtual_contest_watcher_avc&#45;&gt;cmd_line_bot_virtual_contest_watcher_avc_backend</title>
<path fill="none" stroke="black" d="M1266.46,-191.444C1234.41,-172.961 1189.41,-146.952 1150.02,-123.974"/>
</g>
<!-- pyquery -->
<g id="node9" class="node"><title>pyquery</title>
<ellipse fill="#53b6b6" stroke="black" cx="1281.02" cy="-498.905" rx="30.0436" ry="18"/>
<text text-anchor="middle" x="1281.02" y="-496.405" font-family="Helvetica,sans-Serif" font-size="10.00" fill="#000000">pyquery</text>
</g>
<!-- pyquery&#45;&gt;cmd_line_bot_virtual_contest_watcher_avc -->
<g id="edge11" class="edge"><title>pyquery&#45;&gt;cmd_line_bot_virtual_contest_watcher_avc</title>
<path fill="none" stroke="black" d="M1279.51,-480.839C1278.22,-462.286 1277.12,-431.819 1281.02,-405.922"/>
</g>
<!-- imgkit -->
<g id="node10" class="node"><title>imgkit</title>
<ellipse fill="#c247a3" stroke="black" cx="1223.02" cy="-780.853" rx="27" ry="18"/>
<text text-anchor="middle" x="1223.02" y="-778.353" font-family="Helvetica,sans-Serif" font-size="10.00" fill="#ffffff">imgkit</text>
</g>
<!-- imgkit&#45;&gt;cmd_line_bot_virtual_contest_watcher_avc -->
<g id="edge12" class="edge"><title>imgkit&#45;&gt;cmd_line_bot_virtual_contest_watcher_avc</title>
<path fill="none" stroke="black" d="M1221.26,-762.878C1216.92,-715.303 1208.34,-577.152 1242.02,-469.914 1252,-438.137 1276.06,-438.857 1281.02,-405.922"/>
<path fill="none" stroke="black" d="M1281.02,-403.922C1285.81,-363.323 1264.52,-349.344 1281.02,-311.94"/>
</g>
<!-- cmd_line_bot_core_error_visualizer -->
<g id="node22" class="node"><title>cmd_line_bot_core_error_visualizer</title>
<ellipse fill="#a13535" stroke="black" cx="569.022" cy="-498.905" rx="58.8803" ry="28.9828"/>
<text text-anchor="middle" x="569.022" y="-507.405" font-family="Helvetica,sans-Serif" font-size="10.00" fill="#ffffff">cmd_line_bot.</text>
<text text-anchor="middle" x="569.022" y="-496.405" font-family="Helvetica,sans-Serif" font-size="10.00" fill="#ffffff">core.</text>
<text text-anchor="middle" x="569.022" y="-485.405" font-family="Helvetica,sans-Serif" font-size="10.00" fill="#ffffff">error_visualizer</text>
</g>
<!-- imgkit&#45;&gt;cmd_line_bot_core_error_visualizer -->
<g id="edge55" class="edge"><title>imgkit&#45;&gt;cmd_line_bot_core_error_visualizer</title>
<path fill="none" stroke="black" d="M1207.29,-765.885C1201.24,-760.997 1194.09,-755.761 1187.02,-751.862 1113.77,-711.472 1054.99,-758.405 1010.02,-687.871"/>
</g>
<!-- cmd_line_bot_core_cmd_line_bot&#45;&gt;cmd_line_bot_ends_cmd_arg_backend -->
<g id="edge43" class="edge"><title>cmd_line_bot_core_cmd_line_bot&#45;&gt;cmd_line_bot_ends_cmd_arg_backend</title>
<path fill="none" stroke="black" d="M541.758,-378.031C565.541,-351.042 605.921,-308.986 648.022,-281.948 677.324,-263.13 713.059,-248.195 743.318,-237.502"/>
<polygon fill="black" stroke="black" points="744.626,-240.754 752.935,-234.18 742.34,-234.137 744.626,-240.754"/>
</g>
<!-- cmd_line_bot_core_cmd_line_bot&#45;&gt;cmd_line_bot_ends_cron_frontend -->
<g id="edge13" class="edge"><title>cmd_line_bot_core_cmd_line_bot&#45;&gt;cmd_line_bot_ends_cron_frontend</title>
<path fill="none" stroke="black" d="M510.022,-309.94C508.093,-283.38 527.427,-260.901 547.802,-244.815"/>
<polygon fill="black" stroke="black" points="550.004,-247.539 555.924,-238.752 545.816,-241.93 550.004,-247.539"/>
</g>
<!-- cmd_line_bot_core_cmd_line_bot&#45;&gt;cmd_line_bot_ends_trivial_ends -->
<g id="edge16" class="edge"><title>cmd_line_bot_core_cmd_line_bot&#45;&gt;cmd_line_bot_ends_trivial_ends</title>
<path fill="none" stroke="black" d="M485.571,-382.37C460.034,-365.306 425.402,-339.774 400.022,-311.94"/>
</g>
<!-- cmd_line_bot_core_cmd_line_bot&#45;&gt;cmd_line_bot_ends_ipc_frontend -->
<g id="edge19" class="edge"><title>cmd_line_bot_core_cmd_line_bot&#45;&gt;cmd_line_bot_ends_ipc_frontend</title>
<path fill="none" stroke="black" d="M510.022,-309.94C506.048,-255.219 503.985,-236.784 529.022,-187.966 535.535,-175.266 545.518,-163.578 555.721,-153.762"/>
<polygon fill="black" stroke="black" points="558.136,-156.295 563.142,-146.958 553.406,-151.135 558.136,-156.295"/>
</g>
<!-- cmd_line_bot_core_cmd_line_bot&#45;&gt;cmd_line_bot_ends_discord_frontend -->
<g id="edge27" class="edge"><title>cmd_line_bot_core_cmd_line_bot&#45;&gt;cmd_line_bot_ends_discord_frontend</title>
<path fill="none" stroke="black" d="M478.463,-385.992C451.584,-373.931 416.124,-357.141 386.022,-339.931 346.003,-317.051 340.669,-303.694 300.022,-281.948 290.563,-276.888 240.791,-256.643 199.972,-240.261"/>
<polygon fill="black" stroke="black" points="201.204,-236.984 190.62,-236.512 198.6,-243.481 201.204,-236.984"/>
</g>
<!-- cmd_line_bot_core_cmd_line_bot&#45;&gt;cmd_line_bot_ends_terminal_frontend -->
<g id="edge36" class="edge"><title>cmd_line_bot_core_cmd_line_bot&#45;&gt;cmd_line_bot_ends_terminal_frontend</title>
<path fill="none" stroke="black" d="M516.435,-375.79C514.248,-357.604 511.581,-333.408 510.022,-311.94"/>
<path fill="none" stroke="black" d="M510.022,-309.94C508.054,-282.846 487.62,-260.989 466.406,-245.39"/>
<polygon fill="black" stroke="black" points="468.165,-242.351 457.958,-239.512 464.167,-248.096 468.165,-242.351"/>
</g>
<!-- cmd_line_bot_ends_ipc_server&#45;&gt;cmd_line_bot_ends_ipc_frontend -->
<g id="edge22" class="edge"><title>cmd_line_bot_ends_ipc_server&#45;&gt;cmd_line_bot_ends_ipc_frontend</title>
<path fill="none" stroke="black" d="M908.506,-196.949C900.824,-193.67 892.754,-190.505 885.022,-187.966 807.669,-162.565 715.433,-144.209 655.854,-133.836"/>
<polygon fill="black" stroke="black" points="656.3,-130.362 645.851,-132.117 655.114,-137.261 656.3,-130.362"/>
</g>
<!-- discord -->
<g id="node17" class="node"><title>discord</title>
<ellipse fill="#7f40c0" stroke="black" cx="106.022" cy="-498.905" rx="28.0137" ry="18"/>
<text text-anchor="middle" x="106.022" y="-496.405" font-family="Helvetica,sans-Serif" font-size="10.00" fill="#ffffff">discord</text>
</g>
<!-- discord&#45;&gt;cmd_line_bot_ends_discord_frontend -->
<g id="edge25" class="edge"><title>discord&#45;&gt;cmd_line_bot_ends_discord_frontend</title>
<path fill="none" stroke="black" d="M107.314,-480.745C110.211,-444.082 117.929,-355.464 130.022,-281.948 131.428,-273.399 133.237,-264.27 135.085,-255.665"/>
<polygon fill="black" stroke="black" points="138.51,-256.389 137.25,-245.869 131.675,-254.878 138.51,-256.389"/>
</g>
<!-- discord&#45;&gt;discord -->
<g id="edge64" class="edge"><title>discord&#45;&gt;discord</title>
<path fill="none" stroke="black" d="M123.101,-513.523C137.369,-519.77 152.278,-514.897 152.278,-498.905 152.278,-486.661 143.539,-480.935 133.039,-481.727"/>
<polygon fill="black" stroke="black" points="131.912,-478.403 123.101,-484.287 133.658,-485.182 131.912,-478.403"/>
</g>
<!-- pytypes -->
<g id="node18" class="node"><title>pytypes</title>
<ellipse fill="#b69d53" stroke="black" cx="30.0218" cy="-498.905" rx="30.0436" ry="18"/>
<text text-anchor="middle" x="30.0218" y="-496.405" font-family="Helvetica,sans-Serif" font-size="10.00" fill="#000000">pytypes</text>
</g>
<!-- pytypes&#45;&gt;cmd_line_bot_ends_discord_frontend -->
<g id="edge28" class="edge"><title>pytypes&#45;&gt;cmd_line_bot_ends_discord_frontend</title>
<path fill="none" stroke="black" d="M36.8116,-481.231C54.784,-437.097 103.928,-316.415 128.951,-254.967"/>
<polygon fill="black" stroke="black" points="132.221,-256.215 132.751,-245.634 125.738,-253.575 132.221,-256.215"/>
</g>
<!-- cmd_line_bot_ends_parser&#45;&gt;cmd_line_bot_ends_cmd_arg_backend -->
<g id="edge42" class="edge"><title>cmd_line_bot_ends_parser&#45;&gt;cmd_line_bot_ends_cmd_arg_backend</title>
<path fill="none" stroke="black" d="M867.18,-284.317C858.257,-274.308 847.896,-262.685 838.361,-251.99"/>
<polygon fill="black" stroke="black" points="840.864,-249.538 831.597,-244.402 835.639,-254.196 840.864,-249.538"/>
</g>
<!-- cmd_line_bot_core_error_visualizer&#45;&gt;cmd_line_bot_core_cmd_line_bot -->
<g id="edge47" class="edge"><title>cmd_line_bot_core_error_visualizer&#45;&gt;cmd_line_bot_core_cmd_line_bot</title>
<path fill="none" stroke="black" d="M554.32,-470.307C549.627,-461.496 544.359,-451.607 539.386,-442.273"/>
<polygon fill="black" stroke="black" points="542.335,-440.364 534.544,-433.184 536.157,-443.655 542.335,-440.364"/>
</g>
<!-- yaml -->
<g id="node23" class="node"><title>yaml</title>
<ellipse fill="#536cb6" stroke="black" cx="1168.02" cy="-686.871" rx="27" ry="18"/>
<text text-anchor="middle" x="1168.02" y="-684.371" font-family="Helvetica,sans-Serif" font-size="10.00" fill="#ffffff">yaml</text>
</g>
<!-- yaml&#45;&gt;cmd_line_bot_core_clb_data -->
<g id="edge50" class="edge"><title>yaml&#45;&gt;cmd_line_bot_core_clb_data</title>
<path fill="none" stroke="black" d="M1168.02,-668.78C1168.02,-624.565 1168.02,-505.579 1168.02,-444.004"/>
<polygon fill="black" stroke="black" points="1171.52,-443.919 1168.02,-433.919 1164.52,-443.919 1171.52,-443.919"/>
</g>
<!-- pygments_lexers -->
<g id="node24" class="node"><title>pygments_lexers</title>
<ellipse fill="#7ab83d" stroke="black" cx="886.022" cy="-780.853" rx="43.6818" ry="21.4286"/>
<text text-anchor="middle" x="886.022" y="-783.853" font-family="Helvetica,sans-Serif" font-size="10.00" fill="#000000">pygments.</text>
<text text-anchor="middle" x="886.022" y="-772.853" font-family="Helvetica,sans-Serif" font-size="10.00" fill="#000000">lexers</text>
</g>
<!-- pygments_lexers&#45;&gt;cmd_line_bot_core_error_visualizer -->
<g id="edge51" class="edge"><title>pygments_lexers&#45;&gt;cmd_line_bot_core_error_visualizer</title>
<path fill="none" stroke="black" d="M916.428,-765.385C957.156,-745.01 1022.92,-708.099 1010.02,-687.871"/>
</g>
<!-- pygments_lexers&#45;&gt;pygments_lexers -->
<g id="edge62" class="edge"><title>pygments_lexers&#45;&gt;pygments_lexers</title>
<path fill="none" stroke="black" d="M914.647,-797.025C931.758,-800.619 947.862,-795.228 947.862,-780.853 947.862,-769.398 937.636,-763.648 924.823,-763.604"/>
<polygon fill="black" stroke="black" points="924.223,-760.148 914.647,-764.682 924.96,-767.109 924.223,-760.148"/>
</g>
<!-- pygments_formatters -->
<g id="node25" class="node"><title>pygments_formatters</title>
<ellipse fill="#7ab83d" stroke="black" cx="1010.02" cy="-780.853" rx="43.6818" ry="21.4286"/>
<text text-anchor="middle" x="1010.02" y="-783.853" font-family="Helvetica,sans-Serif" font-size="10.00" fill="#000000">pygments.</text>
<text text-anchor="middle" x="1010.02" y="-772.853" font-family="Helvetica,sans-Serif" font-size="10.00" fill="#000000">formatters</text>
</g>
<!-- pygments_formatters&#45;&gt;cmd_line_bot_core_error_visualizer -->
<g id="edge52" class="edge"><title>pygments_formatters&#45;&gt;cmd_line_bot_core_error_visualizer</title>
<path fill="none" stroke="black" d="M1015.9,-759.465C1020.37,-739.578 1023.67,-709.281 1010.02,-687.871"/>
</g>
<!-- pygments_formatters&#45;&gt;pygments_formatters -->
<g id="edge63" class="edge"><title>pygments_formatters&#45;&gt;pygments_formatters</title>
<path fill="none" stroke="black" d="M1038.65,-797.025C1055.76,-800.619 1071.86,-795.228 1071.86,-780.853 1071.86,-769.398 1061.64,-763.648 1048.82,-763.604"/>
<polygon fill="black" stroke="black" points="1048.22,-760.148 1038.65,-764.682 1048.96,-767.109 1048.22,-760.148"/>
</g>
<!-- pygments -->
<g id="node26" class="node"><title>pygments</title>
<ellipse fill="#80d926" stroke="black" cx="1125.02" cy="-780.853" rx="34.9638" ry="18"/>
<text text-anchor="middle" x="1125.02" y="-778.353" font-family="Helvetica,sans-Serif" font-size="10.00" fill="#000000">pygments</text>
</g>
<!-- pygments&#45;&gt;cmd_line_bot_core_error_visualizer -->
<g id="edge53" class="edge"><title>pygments&#45;&gt;cmd_line_bot_core_error_visualizer</title>
<path fill="none" stroke="black" d="M1104.89,-766.157C1075.38,-745.703 1022.53,-707.488 1010.02,-687.871"/>
</g>
<!-- pygments&#45;&gt;pygments -->
<g id="edge61" class="edge"><title>pygments&#45;&gt;pygments</title>
<path fill="none" stroke="black" d="M1145.04,-795.678C1161.14,-801.607 1177.75,-796.666 1177.75,-780.853 1177.75,-768.376 1167.41,-762.668 1155.14,-763.728"/>
<polygon fill="black" stroke="black" points="1154.01,-760.394 1145.04,-766.029 1155.57,-767.219 1154.01,-760.394"/>
</g>
<!-- colorama -->
<g id="node27" class="node"><title>colorama</title>
<ellipse fill="#53b66c" stroke="black" cx="791.022" cy="-780.853" rx="32.9303" ry="18"/>
<text text-anchor="middle" x="791.022" y="-778.353" font-family="Helvetica,sans-Serif" font-size="10.00" fill="#000000">colorama</text>
</g>
<!-- colorama&#45;&gt;cmd_line_bot_core_error_visualizer -->
<g id="edge54" class="edge"><title>colorama&#45;&gt;cmd_line_bot_core_error_visualizer</title>
<path fill="none" stroke="black" d="M810.088,-765.737C817.079,-760.945 825.199,-755.81 833.022,-751.862 907.7,-714.173 1008.69,-771.51 1010.02,-687.871"/>
<path fill="none" stroke="black" d="M1010.02,-685.871C1010.06,-683.273 740.541,-571.091 622.884,-522.245"/>
<polygon fill="black" stroke="black" points="623.908,-518.88 613.331,-518.279 621.225,-525.345 623.908,-518.88"/>
</g>
<!-- cmd_line_bot_virtual_contest_base -->
<g id="node28" class="node"><title>cmd_line_bot_virtual_contest_base</title>
<ellipse fill="#db2f2f" stroke="black" cx="1388.02" cy="-780.853" rx="58.8803" ry="28.9828"/>
<text text-anchor="middle" x="1388.02" y="-789.353" font-family="Helvetica,sans-Serif" font-size="10.00" fill="#ffffff">cmd_line_bot.</text>
<text text-anchor="middle" x="1388.02" y="-778.353" font-family="Helvetica,sans-Serif" font-size="10.00" fill="#ffffff">virtual_contest.</text>
<text text-anchor="middle" x="1388.02" y="-767.353" font-family="Helvetica,sans-Serif" font-size="10.00" fill="#ffffff">base</text>
</g>
<!-- cmd_line_bot_virtual_contest_virtual_contest -->
<g id="node29" class="node"><title>cmd_line_bot_virtual_contest_virtual_contest</title>
<ellipse fill="#ac4949" stroke="black" cx="1310.02" cy="-592.888" rx="58.8803" ry="28.9828"/>
<text text-anchor="middle" x="1310.02" y="-601.388" font-family="Helvetica,sans-Serif" font-size="10.00" fill="#ffffff">cmd_line_bot.</text>
<text text-anchor="middle" x="1310.02" y="-590.388" font-family="Helvetica,sans-Serif" font-size="10.00" fill="#ffffff">virtual_contest.</text>
<text text-anchor="middle" x="1310.02" y="-579.388" font-family="Helvetica,sans-Serif" font-size="10.00" fill="#ffffff">virtual_contest</text>
</g>
<!-- cmd_line_bot_virtual_contest_base&#45;&gt;cmd_line_bot_virtual_contest_virtual_contest -->
<g id="edge56" class="edge"><title>cmd_line_bot_virtual_contest_base&#45;&gt;cmd_line_bot_virtual_contest_virtual_contest</title>
<path fill="none" stroke="black" d="M1354.45,-756.83C1341.4,-746.002 1327.76,-731.928 1320.02,-715.862 1307.52,-689.899 1305.46,-657.211 1306.28,-632.211"/>
<polygon fill="black" stroke="black" points="1309.79,-632.171 1306.79,-622.009 1302.8,-631.822 1309.79,-632.171"/>
</g>
<!-- cmd_line_bot_virtual_contest_vcserver -->
<g id="node30" class="node"><title>cmd_line_bot_virtual_contest_vcserver</title>
<ellipse fill="#cc3333" stroke="black" cx="1388.02" cy="-686.871" rx="58.8803" ry="28.9828"/>
<text text-anchor="middle" x="1388.02" y="-695.371" font-family="Helvetica,sans-Serif" font-size="10.00" fill="#ffffff">cmd_line_bot.</text>
<text text-anchor="middle" x="1388.02" y="-684.371" font-family="Helvetica,sans-Serif" font-size="10.00" fill="#ffffff">virtual_contest.</text>
<text text-anchor="middle" x="1388.02" y="-673.371" font-family="Helvetica,sans-Serif" font-size="10.00" fill="#ffffff">vcserver</text>
</g>
<!-- cmd_line_bot_virtual_contest_base&#45;&gt;cmd_line_bot_virtual_contest_vcserver -->
<g id="edge60" class="edge"><title>cmd_line_bot_virtual_contest_base&#45;&gt;cmd_line_bot_virtual_contest_vcserver</title>
<path fill="none" stroke="black" d="M1388.02,-751.756C1388.02,-743.718 1388.02,-734.816 1388.02,-726.273"/>
<polygon fill="black" stroke="black" points="1391.52,-726.113 1388.02,-716.113 1384.52,-726.113 1391.52,-726.113"/>
</g>
<!-- cmd_line_bot_virtual_contest_example_server -->
<g id="node31" class="node"><title>cmd_line_bot_virtual_contest_example_server</title>
<ellipse fill="#ac4949" stroke="black" cx="1466.02" cy="-592.888" rx="60.623" ry="28.9828"/>
<text text-anchor="middle" x="1466.02" y="-601.388" font-family="Helvetica,sans-Serif" font-size="10.00" fill="#ffffff">cmd_line_bot.</text>
<text text-anchor="middle" x="1466.02" y="-590.388" font-family="Helvetica,sans-Serif" font-size="10.00" fill="#ffffff">virtual_contest.</text>
<text text-anchor="middle" x="1466.02" y="-579.388" font-family="Helvetica,sans-Serif" font-size="10.00" fill="#ffffff">example_server</text>
</g>
<!-- cmd_line_bot_virtual_contest_base&#45;&gt;cmd_line_bot_virtual_contest_example_server -->
<g id="edge58" class="edge"><title>cmd_line_bot_virtual_contest_base&#45;&gt;cmd_line_bot_virtual_contest_example_server</title>
<path fill="none" stroke="black" d="M1421.6,-756.83C1434.64,-746.002 1448.29,-731.928 1456.02,-715.862 1468.52,-689.899 1470.59,-657.211 1469.76,-632.211"/>
<polygon fill="black" stroke="black" points="1473.25,-631.822 1469.25,-622.009 1466.25,-632.171 1473.25,-631.822"/>
</g>
<!-- cmd_line_bot_virtual_contest_vcserver&#45;&gt;cmd_line_bot_virtual_contest_virtual_contest -->
<g id="edge57" class="edge"><title>cmd_line_bot_virtual_contest_vcserver&#45;&gt;cmd_line_bot_virtual_contest_virtual_contest</title>
<path fill="none" stroke="black" d="M1365.88,-659.758C1357.48,-649.854 1347.79,-638.427 1338.86,-627.9"/>
<polygon fill="black" stroke="black" points="1341.36,-625.429 1332.22,-620.066 1336.02,-629.956 1341.36,-625.429"/>
</g>
<!-- cmd_line_bot_virtual_contest_vcserver&#45;&gt;cmd_line_bot_virtual_contest_example_server -->
<g id="edge59" class="edge"><title>cmd_line_bot_virtual_contest_vcserver&#45;&gt;cmd_line_bot_virtual_contest_example_server</title>
<path fill="none" stroke="black" d="M1410.16,-659.758C1418.56,-649.854 1428.25,-638.427 1437.18,-627.9"/>
<polygon fill="black" stroke="black" points="1440.03,-629.956 1443.82,-620.066 1434.69,-625.429 1440.03,-629.956"/>
</g>
</g>
</svg>
