<?xml version="1.0" encoding="UTF-8" standalone="no"?>
<!DOCTYPE svg PUBLIC "-//W3C//DTD SVG 1.1//EN"
 "http://www.w3.org/Graphics/SVG/1.1/DTD/svg11.dtd">
<!-- Generated by graphviz version 2.38.0 (20140413.2041)
 -->
<!-- Title: G Pages: 1 -->
<svg width="1569pt" height="818pt"
 viewBox="0.00 0.00 1568.90 817.84" xmlns="http://www.w3.org/2000/svg" xmlns:xlink="http://www.w3.org/1999/xlink">
<g id="graph0" class="graph" transform="scale(1 1) rotate(0) translate(4 813.845)">
<title>G</title>
<polygon fill="white" stroke="none" points="-4,4 -4,-813.845 1564.9,-813.845 1564.9,4 -4,4"/>
<!-- cmd_line_bot_core_clb_error -->
<g id="node1" class="node"><title>cmd_line_bot_core_clb_error</title>
<ellipse fill="#f9bf10" stroke="black" cx="876.209" cy="-498.905" rx="54.3945" ry="28.9828"/>
<text text-anchor="middle" x="876.209" y="-507.405" font-family="Helvetica,sans-Serif" font-size="10.00" fill="#000000">cmd_line_bot.</text>
<text text-anchor="middle" x="876.209" y="-496.405" font-family="Helvetica,sans-Serif" font-size="10.00" fill="#000000">core.</text>
<text text-anchor="middle" x="876.209" y="-485.405" font-family="Helvetica,sans-Serif" font-size="10.00" fill="#000000">clb_error</text>
</g>
<!-- cmd_line_bot_virtual_contest_watcher_avc_backend -->
<g id="node2" class="node"><title>cmd_line_bot_virtual_contest_watcher_avc_backend</title>
<ellipse fill="#88743a" stroke="black" cx="154.209" cy="-28.9914" rx="86.9483" ry="28.9828"/>
<text text-anchor="middle" x="154.209" y="-37.4914" font-family="Helvetica,sans-Serif" font-size="10.00" fill="#ffffff">cmd_line_bot.</text>
<text text-anchor="middle" x="154.209" y="-26.4914" font-family="Helvetica,sans-Serif" font-size="10.00" fill="#ffffff">virtual_contest_watcher.</text>
<text text-anchor="middle" x="154.209" y="-15.4914" font-family="Helvetica,sans-Serif" font-size="10.00" fill="#ffffff">avc_backend</text>
</g>
<!-- cmd_line_bot_core_clb_error&#45;&gt;cmd_line_bot_virtual_contest_watcher_avc_backend -->
<g id="edge1" class="edge"><title>cmd_line_bot_core_clb_error&#45;&gt;cmd_line_bot_virtual_contest_watcher_avc_backend</title>
<path fill="none" stroke="black" d="M912.652,-477.245C930.104,-466.059 950.378,-451.029 965.209,-433.914 1005.17,-387.803 1021.93,-372.63 1028.21,-311.94"/>
<path fill="none" stroke="black" d="M1028.21,-309.94C1046.01,-253.257 902.693,-270.079 931.209,-217.957"/>
</g>
<!-- cmd_line_bot_virtual_contest_watcher_avc -->
<g id="node5" class="node"><title>cmd_line_bot_virtual_contest_watcher_avc</title>
<ellipse fill="#a18635" stroke="black" cx="1190.21" cy="-216.957" rx="86.9483" ry="28.9828"/>
<text text-anchor="middle" x="1190.21" y="-225.457" font-family="Helvetica,sans-Serif" font-size="10.00" fill="#000000">cmd_line_bot.</text>
<text text-anchor="middle" x="1190.21" y="-214.457" font-family="Helvetica,sans-Serif" font-size="10.00" fill="#000000">virtual_contest_watcher.</text>
<text text-anchor="middle" x="1190.21" y="-203.457" font-family="Helvetica,sans-Serif" font-size="10.00" fill="#000000">avc</text>
</g>
<!-- cmd_line_bot_core_clb_error&#45;&gt;cmd_line_bot_virtual_contest_watcher_avc -->
<g id="edge8" class="edge"><title>cmd_line_bot_core_clb_error&#45;&gt;cmd_line_bot_virtual_contest_watcher_avc</title>
<path fill="none" stroke="black" d="M1028.21,-309.94C1030.57,-287.161 1079.89,-261.438 1123.49,-242.997"/>
<polygon fill="black" stroke="black" points="1125.08,-246.126 1132.98,-239.059 1122.4,-239.661 1125.08,-246.126"/>
</g>
<!-- cmd_line_bot_core_clb_data -->
<g id="node6" class="node"><title>cmd_line_bot_core_clb_data</title>
<ellipse fill="#ddac18" stroke="black" cx="1110.21" cy="-404.922" rx="54.3945" ry="28.9828"/>
<text text-anchor="middle" x="1110.21" y="-413.422" font-family="Helvetica,sans-Serif" font-size="10.00" fill="#000000">cmd_line_bot.</text>
<text text-anchor="middle" x="1110.21" y="-402.422" font-family="Helvetica,sans-Serif" font-size="10.00" fill="#000000">core.</text>
<text text-anchor="middle" x="1110.21" y="-391.422" font-family="Helvetica,sans-Serif" font-size="10.00" fill="#000000">clb_data</text>
</g>
<!-- cmd_line_bot_core_clb_error&#45;&gt;cmd_line_bot_core_clb_data -->
<g id="edge49" class="edge"><title>cmd_line_bot_core_clb_error&#45;&gt;cmd_line_bot_core_clb_data</title>
<path fill="none" stroke="black" d="M920.002,-481.332C953.533,-468.568 1000.89,-450.379 1042.21,-433.914 1047.6,-431.764 1053.23,-429.495 1058.83,-427.216"/>
<polygon fill="black" stroke="black" points="1060.26,-430.413 1068.19,-423.392 1057.61,-423.933 1060.26,-430.413"/>
</g>
<!-- cmd_line_bot_ends_cmd_arg_backend -->
<g id="node7" class="node"><title>cmd_line_bot_ends_cmd_arg_backend</title>
<ellipse fill="#ac8b2b" stroke="black" cx="734.209" cy="-216.957" rx="67.7647" ry="28.9828"/>
<text text-anchor="middle" x="734.209" y="-225.457" font-family="Helvetica,sans-Serif" font-size="10.00" fill="#000000">cmd_line_bot.</text>
<text text-anchor="middle" x="734.209" y="-214.457" font-family="Helvetica,sans-Serif" font-size="10.00" fill="#000000">ends.</text>
<text text-anchor="middle" x="734.209" y="-203.457" font-family="Helvetica,sans-Serif" font-size="10.00" fill="#000000">cmd_arg_backend</text>
</g>
<!-- cmd_line_bot_core_clb_error&#45;&gt;cmd_line_bot_ends_cmd_arg_backend -->
<g id="edge39" class="edge"><title>cmd_line_bot_core_clb_error&#45;&gt;cmd_line_bot_ends_cmd_arg_backend</title>
<path fill="none" stroke="black" d="M866.333,-470.383C850.787,-428.416 818.505,-346.494 781.209,-281.948 775.506,-272.08 768.584,-261.91 761.825,-252.663"/>
<polygon fill="black" stroke="black" points="764.491,-250.384 755.704,-244.466 758.883,-254.573 764.491,-250.384"/>
</g>
<!-- cmd_line_bot_core_cmd_line_bot -->
<g id="node12" class="node"><title>cmd_line_bot_core_cmd_line_bot</title>
<ellipse fill="#e5ad05" stroke="black" cx="516.209" cy="-404.922" rx="54.3945" ry="28.9828"/>
<text text-anchor="middle" x="516.209" y="-413.422" font-family="Helvetica,sans-Serif" font-size="10.00" fill="#000000">cmd_line_bot.</text>
<text text-anchor="middle" x="516.209" y="-402.422" font-family="Helvetica,sans-Serif" font-size="10.00" fill="#000000">core.</text>
<text text-anchor="middle" x="516.209" y="-391.422" font-family="Helvetica,sans-Serif" font-size="10.00" fill="#000000">cmd_line_bot</text>
</g>
<!-- cmd_line_bot_core_clb_error&#45;&gt;cmd_line_bot_core_cmd_line_bot -->
<g id="edge46" class="edge"><title>cmd_line_bot_core_clb_error&#45;&gt;cmd_line_bot_core_cmd_line_bot</title>
<path fill="none" stroke="black" d="M827.657,-485.5C761.987,-468.721 644.99,-438.827 574.6,-420.842"/>
<polygon fill="black" stroke="black" points="575.119,-417.362 564.564,-418.278 573.386,-424.144 575.119,-417.362"/>
</g>
<!-- cmd_line_bot_ends_discord_frontend -->
<g id="node16" class="node"><title>cmd_line_bot_ends_discord_frontend</title>
<ellipse fill="#88743a" stroke="black" cx="1022.21" cy="-216.957" rx="62.8651" ry="28.9828"/>
<text text-anchor="middle" x="1022.21" y="-225.457" font-family="Helvetica,sans-Serif" font-size="10.00" fill="#ffffff">cmd_line_bot.</text>
<text text-anchor="middle" x="1022.21" y="-214.457" font-family="Helvetica,sans-Serif" font-size="10.00" fill="#ffffff">ends.</text>
<text text-anchor="middle" x="1022.21" y="-203.457" font-family="Helvetica,sans-Serif" font-size="10.00" fill="#ffffff">discord_frontend</text>
</g>
<!-- cmd_line_bot_core_clb_error&#45;&gt;cmd_line_bot_ends_discord_frontend -->
<g id="edge23" class="edge"><title>cmd_line_bot_core_clb_error&#45;&gt;cmd_line_bot_ends_discord_frontend</title>
<path fill="none" stroke="black" d="M1028.21,-309.94C1030.02,-292.442 1029.17,-273.012 1027.61,-256.535"/>
<polygon fill="black" stroke="black" points="1031.05,-255.755 1026.5,-246.184 1024.09,-256.499 1031.05,-255.755"/>
</g>
<!-- cmd_line_bot_ends_example_backend -->
<g id="node19" class="node"><title>cmd_line_bot_ends_example_backend</title>
<ellipse fill="#9d8743" stroke="black" cx="249.209" cy="-122.974" rx="67.3507" ry="28.9828"/>
<text text-anchor="middle" x="249.209" y="-131.474" font-family="Helvetica,sans-Serif" font-size="10.00" fill="#000000">cmd_line_bot.</text>
<text text-anchor="middle" x="249.209" y="-120.474" font-family="Helvetica,sans-Serif" font-size="10.00" fill="#000000">ends.</text>
<text text-anchor="middle" x="249.209" y="-109.474" font-family="Helvetica,sans-Serif" font-size="10.00" fill="#000000">example_backend</text>
</g>
<!-- cmd_line_bot_core_clb_error&#45;&gt;cmd_line_bot_ends_example_backend -->
<g id="edge30" class="edge"><title>cmd_line_bot_core_clb_error&#45;&gt;cmd_line_bot_ends_example_backend</title>
<path fill="none" stroke="black" d="M885.911,-470.1C904.027,-412.519 934.948,-280.401 862.209,-217.957"/>
</g>
<!-- cmd_line_bot_ends_parser -->
<g id="node21" class="node"><title>cmd_line_bot_ends_parser</title>
<ellipse fill="#b8993d" stroke="black" cx="718.209" cy="-310.94" rx="54.3945" ry="28.9828"/>
<text text-anchor="middle" x="718.209" y="-319.44" font-family="Helvetica,sans-Serif" font-size="10.00" fill="#000000">cmd_line_bot.</text>
<text text-anchor="middle" x="718.209" y="-308.44" font-family="Helvetica,sans-Serif" font-size="10.00" fill="#000000">ends.</text>
<text text-anchor="middle" x="718.209" y="-297.44" font-family="Helvetica,sans-Serif" font-size="10.00" fill="#000000">parser</text>
</g>
<!-- cmd_line_bot_core_clb_error&#45;&gt;cmd_line_bot_ends_parser -->
<g id="edge44" class="edge"><title>cmd_line_bot_core_clb_error&#45;&gt;cmd_line_bot_ends_parser</title>
<path fill="none" stroke="black" d="M826.604,-486.926C782.423,-474.186 726.685,-449.18 740.209,-405.922"/>
</g>
<!-- cmd_line_bot_core_clb_interface -->
<g id="node3" class="node"><title>cmd_line_bot_core_clb_interface</title>
<ellipse fill="#f9bf10" stroke="black" cx="658.209" cy="-498.905" rx="54.3945" ry="28.9828"/>
<text text-anchor="middle" x="658.209" y="-507.405" font-family="Helvetica,sans-Serif" font-size="10.00" fill="#000000">cmd_line_bot.</text>
<text text-anchor="middle" x="658.209" y="-496.405" font-family="Helvetica,sans-Serif" font-size="10.00" fill="#000000">core.</text>
<text text-anchor="middle" x="658.209" y="-485.405" font-family="Helvetica,sans-Serif" font-size="10.00" fill="#000000">clb_interface</text>
</g>
<!-- cmd_line_bot_core_clb_interface&#45;&gt;cmd_line_bot_virtual_contest_watcher_avc_backend -->
<g id="edge2" class="edge"><title>cmd_line_bot_core_clb_interface&#45;&gt;cmd_line_bot_virtual_contest_watcher_avc_backend</title>
<path fill="none" stroke="black" d="M704.877,-483.893C735.348,-473.29 774.944,-456.651 805.209,-433.914 894.052,-367.167 889.784,-321.07 931.209,-217.957"/>
<path fill="none" stroke="black" d="M931.209,-215.957C938.425,-202.766 937.602,-196.16 950.209,-187.966 1017.42,-144.278 1331.07,-199.848 1305.21,-123.974"/>
<path fill="none" stroke="black" d="M1305.21,-121.974C1288.24,-72.1837 525.126,-42.1992 250.989,-33.019"/>
<polygon fill="black" stroke="black" points="250.77,-29.5098 240.659,-32.6752 250.537,-36.506 250.77,-29.5098"/>
</g>
<!-- cmd_line_bot_core_clb_interface&#45;&gt;cmd_line_bot_ends_cmd_arg_backend -->
<g id="edge40" class="edge"><title>cmd_line_bot_core_clb_interface&#45;&gt;cmd_line_bot_ends_cmd_arg_backend</title>
<path fill="none" stroke="black" d="M636.209,-309.94C630.283,-281.537 653.233,-259.026 678.406,-243.383"/>
<polygon fill="black" stroke="black" points="680.499,-246.213 687.359,-238.138 676.961,-240.173 680.499,-246.213"/>
</g>
<!-- cmd_line_bot_ends_cron_frontend -->
<g id="node11" class="node"><title>cmd_line_bot_ends_cron_frontend</title>
<ellipse fill="#a48d46" stroke="black" cx="154.209" cy="-216.957" rx="54.3945" ry="28.9828"/>
<text text-anchor="middle" x="154.209" y="-225.457" font-family="Helvetica,sans-Serif" font-size="10.00" fill="#000000">cmd_line_bot.</text>
<text text-anchor="middle" x="154.209" y="-214.457" font-family="Helvetica,sans-Serif" font-size="10.00" fill="#000000">ends.</text>
<text text-anchor="middle" x="154.209" y="-203.457" font-family="Helvetica,sans-Serif" font-size="10.00" fill="#000000">cron_frontend</text>
</g>
<!-- cmd_line_bot_core_clb_interface&#45;&gt;cmd_line_bot_ends_cron_frontend -->
<g id="edge13" class="edge"><title>cmd_line_bot_core_clb_interface&#45;&gt;cmd_line_bot_ends_cron_frontend</title>
<path fill="none" stroke="black" d="M618.72,-478.813C611.036,-475.541 602.958,-472.4 595.209,-469.914 519.599,-445.653 491.987,-467.873 420.209,-433.914 322.979,-387.913 230.39,-299.15 184.397,-250.986"/>
<polygon fill="black" stroke="black" points="186.838,-248.474 177.421,-243.617 181.754,-253.286 186.838,-248.474"/>
</g>
<!-- cmd_line_bot_core_clb_interface&#45;&gt;cmd_line_bot_core_cmd_line_bot -->
<g id="edge47" class="edge"><title>cmd_line_bot_core_clb_interface&#45;&gt;cmd_line_bot_core_cmd_line_bot</title>
<path fill="none" stroke="black" d="M624.557,-476.107C604.806,-463.313 579.665,-447.027 558.574,-433.365"/>
<polygon fill="black" stroke="black" points="560.407,-430.383 550.111,-427.883 556.601,-436.258 560.407,-430.383"/>
</g>
<!-- cmd_line_bot_ends_trivial_ends -->
<g id="node13" class="node"><title>cmd_line_bot_ends_trivial_ends</title>
<ellipse fill="#a48d46" stroke="black" cx="281.209" cy="-216.957" rx="54.3945" ry="28.9828"/>
<text text-anchor="middle" x="281.209" y="-225.457" font-family="Helvetica,sans-Serif" font-size="10.00" fill="#000000">cmd_line_bot.</text>
<text text-anchor="middle" x="281.209" y="-214.457" font-family="Helvetica,sans-Serif" font-size="10.00" fill="#000000">ends.</text>
<text text-anchor="middle" x="281.209" y="-203.457" font-family="Helvetica,sans-Serif" font-size="10.00" fill="#000000">trivial_ends</text>
</g>
<!-- cmd_line_bot_core_clb_interface&#45;&gt;cmd_line_bot_ends_trivial_ends -->
<g id="edge16" class="edge"><title>cmd_line_bot_core_clb_interface&#45;&gt;cmd_line_bot_ends_trivial_ends</title>
<path fill="none" stroke="black" d="M618.287,-478.951C610.713,-475.704 602.787,-472.537 595.209,-469.914 533.682,-448.619 506.523,-471.285 453.209,-433.914 440.896,-425.283 445.597,-415.74 434.209,-405.922"/>
<path fill="none" stroke="black" d="M434.209,-403.922C397.034,-371.877 376.377,-377 344.209,-339.931 322.392,-314.791 305.63,-280.78 294.9,-255.058"/>
<polygon fill="black" stroke="black" points="298.084,-253.596 291.085,-245.642 291.596,-256.225 298.084,-253.596"/>
</g>
<!-- cmd_line_bot_ends_ipc_frontend -->
<g id="node14" class="node"><title>cmd_line_bot_ends_ipc_frontend</title>
<ellipse fill="#9d8743" stroke="black" cx="72.2087" cy="-122.974" rx="54.3945" ry="28.9828"/>
<text text-anchor="middle" x="72.2087" y="-131.474" font-family="Helvetica,sans-Serif" font-size="10.00" fill="#000000">cmd_line_bot.</text>
<text text-anchor="middle" x="72.2087" y="-120.474" font-family="Helvetica,sans-Serif" font-size="10.00" fill="#000000">ends.</text>
<text text-anchor="middle" x="72.2087" y="-109.474" font-family="Helvetica,sans-Serif" font-size="10.00" fill="#000000">ipc_frontend</text>
</g>
<!-- cmd_line_bot_core_clb_interface&#45;&gt;cmd_line_bot_ends_ipc_frontend -->
<g id="edge19" class="edge"><title>cmd_line_bot_core_clb_interface&#45;&gt;cmd_line_bot_ends_ipc_frontend</title>
<path fill="none" stroke="black" d="M434.209,-403.922C392.791,-367.356 433.123,-332.222 410.209,-281.948 401.802,-263.504 394.129,-262.342 382.209,-245.948 373.366,-233.787 375.95,-225.94 363.209,-217.957"/>
<path fill="none" stroke="black" d="M363.209,-215.957C350.706,-207.604 356.809,-196.17 344.209,-187.966 269.254,-139.162 232.393,-175.887 146.209,-151.966 139.02,-149.97 131.551,-147.562 124.244,-145.005"/>
<polygon fill="black" stroke="black" points="125.016,-141.563 114.422,-141.452 122.635,-148.145 125.016,-141.563"/>
</g>
<!-- cmd_line_bot_core_clb_interface&#45;&gt;cmd_line_bot_ends_discord_frontend -->
<g id="edge24" class="edge"><title>cmd_line_bot_core_clb_interface&#45;&gt;cmd_line_bot_ends_discord_frontend</title>
<path fill="none" stroke="black" d="M709.239,-488.364C782.731,-474.241 911.441,-447.937 928.209,-433.914 982.823,-388.24 1006.63,-304.796 1016.27,-256.088"/>
<polygon fill="black" stroke="black" points="1019.71,-256.722 1018.12,-246.248 1012.83,-255.43 1019.71,-256.722"/>
</g>
<!-- cmd_line_bot_core_clb_interface&#45;&gt;cmd_line_bot_ends_example_backend -->
<g id="edge31" class="edge"><title>cmd_line_bot_core_clb_interface&#45;&gt;cmd_line_bot_ends_example_backend</title>
<path fill="none" stroke="black" d="M694.117,-476.974C770.897,-429.648 938.094,-311.27 862.209,-217.957"/>
<path fill="none" stroke="black" d="M862.209,-215.957C842.59,-199.115 835.851,-195.796 811.209,-187.966 644.219,-134.903 436.992,-124.722 326.741,-123.424"/>
<polygon fill="black" stroke="black" points="326.737,-119.924 316.703,-123.327 326.669,-126.923 326.737,-119.924"/>
</g>
<!-- cmd_line_bot_ends_terminal_frontend -->
<g id="node20" class="node"><title>cmd_line_bot_ends_terminal_frontend</title>
<ellipse fill="#a48d46" stroke="black" cx="456.209" cy="-216.957" rx="65.1077" ry="28.9828"/>
<text text-anchor="middle" x="456.209" y="-225.457" font-family="Helvetica,sans-Serif" font-size="10.00" fill="#000000">cmd_line_bot.</text>
<text text-anchor="middle" x="456.209" y="-214.457" font-family="Helvetica,sans-Serif" font-size="10.00" fill="#000000">ends.</text>
<text text-anchor="middle" x="456.209" y="-203.457" font-family="Helvetica,sans-Serif" font-size="10.00" fill="#000000">terminal_frontend</text>
</g>
<!-- cmd_line_bot_core_clb_interface&#45;&gt;cmd_line_bot_ends_terminal_frontend -->
<g id="edge36" class="edge"><title>cmd_line_bot_core_clb_interface&#45;&gt;cmd_line_bot_ends_terminal_frontend</title>
<path fill="none" stroke="black" d="M656.416,-469.617C653.739,-432.947 647.729,-367.157 636.209,-311.94"/>
<path fill="none" stroke="black" d="M636.209,-309.94C631.686,-294.189 625.492,-291.545 612.209,-281.948 603.623,-275.746 554.886,-256.104 514.14,-240.201"/>
<polygon fill="black" stroke="black" points="515.375,-236.926 504.787,-236.561 512.837,-243.449 515.375,-236.926"/>
</g>
<!-- cmd_line_bot_core -->
<g id="node4" class="node"><title>cmd_line_bot_core</title>
<ellipse fill="#f9bf10" stroke="black" cx="396.209" cy="-498.905" rx="54.3945" ry="21.4286"/>
<text text-anchor="middle" x="396.209" y="-501.905" font-family="Helvetica,sans-Serif" font-size="10.00" fill="#000000">cmd_line_bot.</text>
<text text-anchor="middle" x="396.209" y="-490.905" font-family="Helvetica,sans-Serif" font-size="10.00" fill="#000000">core</text>
</g>
<!-- cmd_line_bot_core&#45;&gt;cmd_line_bot_virtual_contest_watcher_avc_backend -->
<g id="edge3" class="edge"><title>cmd_line_bot_core&#45;&gt;cmd_line_bot_virtual_contest_watcher_avc_backend</title>
<path fill="none" stroke="black" d="M352.102,-486.446C280.181,-464.843 146.344,-411.11 154.209,-311.94"/>
<path fill="none" stroke="black" d="M154.209,-309.94C146.108,-255.775 82.8857,-271.673 72.2087,-217.957"/>
<path fill="none" stroke="black" d="M72.2087,-215.957C64.428,-176.812 24.3378,-188.898 9.20868,-151.966 -0.560114,-128.119 -4.86202,-115.572 9.20868,-93.9828 23.4668,-72.1055 47.0806,-57.6544 71.1541,-48.13"/>
<polygon fill="black" stroke="black" points="72.574,-51.3368 80.7444,-44.5917 70.151,-44.7695 72.574,-51.3368"/>
</g>
<!-- cmd_line_bot_core&#45;&gt;cmd_line_bot_virtual_contest_watcher_avc -->
<g id="edge10" class="edge"><title>cmd_line_bot_core&#45;&gt;cmd_line_bot_virtual_contest_watcher_avc</title>
<path fill="none" stroke="black" d="M598.209,-309.94C609.468,-298.032 607.591,-289.356 622.209,-281.948 716.04,-234.395 990.713,-264.772 1094.21,-245.948 1102.5,-244.441 1111.09,-242.5 1119.58,-240.343"/>
<polygon fill="black" stroke="black" points="1120.69,-243.668 1129.46,-237.726 1118.9,-236.901 1120.69,-243.668"/>
</g>
<!-- cmd_line_bot_core&#45;&gt;cmd_line_bot_ends_cmd_arg_backend -->
<g id="edge41" class="edge"><title>cmd_line_bot_core&#45;&gt;cmd_line_bot_ends_cmd_arg_backend</title>
<path fill="none" stroke="black" d="M396.209,-309.94C434.123,-260.994 575.722,-267.959 657.209,-245.948 663.246,-244.317 669.482,-242.421 675.668,-240.398"/>
<polygon fill="black" stroke="black" points="676.963,-243.655 685.315,-237.136 674.721,-237.024 676.963,-243.655"/>
</g>
<!-- cmd_line_bot_core&#45;&gt;cmd_line_bot_ends_cron_frontend -->
<g id="edge14" class="edge"><title>cmd_line_bot_core&#45;&gt;cmd_line_bot_ends_cron_frontend</title>
<path fill="none" stroke="black" d="M154.209,-309.94C155.596,-292.441 155.792,-273.011 155.564,-256.534"/>
<polygon fill="black" stroke="black" points="159.057,-256.112 155.361,-246.183 152.058,-256.249 159.057,-256.112"/>
</g>
<!-- cmd_line_bot_core&#45;&gt;cmd_line_bot_ends_trivial_ends -->
<g id="edge17" class="edge"><title>cmd_line_bot_core&#45;&gt;cmd_line_bot_ends_trivial_ends</title>
<path fill="none" stroke="black" d="M154.209,-309.94C155.806,-289.8 198.24,-262.094 233.623,-242.365"/>
<polygon fill="black" stroke="black" points="235.352,-245.409 242.437,-237.531 231.986,-239.271 235.352,-245.409"/>
</g>
<!-- cmd_line_bot_core&#45;&gt;cmd_line_bot_ends_ipc_frontend -->
<g id="edge21" class="edge"><title>cmd_line_bot_core&#45;&gt;cmd_line_bot_ends_ipc_frontend</title>
<path fill="none" stroke="black" d="M72.2087,-215.957C68.761,-198.612 68.2962,-179.06 68.8787,-162.457"/>
<polygon fill="black" stroke="black" points="72.3962,-162.185 69.3919,-152.025 65.4046,-161.841 72.3962,-162.185"/>
</g>
<!-- cmd_line_bot_ends_ipc_server -->
<g id="node15" class="node"><title>cmd_line_bot_ends_ipc_server</title>
<ellipse fill="#b8993d" stroke="black" cx="594.209" cy="-216.957" rx="54.3945" ry="28.9828"/>
<text text-anchor="middle" x="594.209" y="-225.457" font-family="Helvetica,sans-Serif" font-size="10.00" fill="#000000">cmd_line_bot.</text>
<text text-anchor="middle" x="594.209" y="-214.457" font-family="Helvetica,sans-Serif" font-size="10.00" fill="#000000">ends.</text>
<text text-anchor="middle" x="594.209" y="-203.457" font-family="Helvetica,sans-Serif" font-size="10.00" fill="#000000">ipc_server</text>
</g>
<!-- cmd_line_bot_core&#45;&gt;cmd_line_bot_ends_ipc_server -->
<g id="edge34" class="edge"><title>cmd_line_bot_core&#45;&gt;cmd_line_bot_ends_ipc_server</title>
<path fill="none" stroke="black" d="M396.209,-309.94C401.128,-303.589 486.394,-265.298 543.414,-240.164"/>
<polygon fill="black" stroke="black" points="544.912,-243.328 552.655,-236.096 542.093,-236.921 544.912,-243.328"/>
</g>
<!-- cmd_line_bot_core&#45;&gt;cmd_line_bot_ends_discord_frontend -->
<g id="edge26" class="edge"><title>cmd_line_bot_core&#45;&gt;cmd_line_bot_ends_discord_frontend</title>
<path fill="none" stroke="black" d="M429.887,-481.999C439.28,-477.822 449.557,-473.489 459.209,-469.914 511.423,-450.571 542.622,-475.888 579.209,-433.914 615.259,-392.556 563.119,-354.116 598.209,-311.94"/>
<path fill="none" stroke="black" d="M598.209,-309.94C609.468,-298.032 607.723,-289.61 622.209,-281.948 749.893,-214.415 804.563,-278.855 945.209,-245.948 952.16,-244.322 959.345,-242.258 966.405,-239.989"/>
<polygon fill="black" stroke="black" points="967.556,-243.295 975.921,-236.792 965.327,-236.659 967.556,-243.295"/>
</g>
<!-- cmd_line_bot_core&#45;&gt;cmd_line_bot_ends_example_backend -->
<g id="edge33" class="edge"><title>cmd_line_bot_core&#45;&gt;cmd_line_bot_ends_example_backend</title>
<path fill="none" stroke="black" d="M72.2087,-215.957C66.9969,-189.736 132.449,-161.687 185.228,-143.551"/>
<polygon fill="black" stroke="black" points="186.559,-146.796 194.915,-140.283 184.321,-140.163 186.559,-146.796"/>
</g>
<!-- cmd_line_bot_core&#45;&gt;cmd_line_bot_ends_terminal_frontend -->
<g id="edge37" class="edge"><title>cmd_line_bot_core&#45;&gt;cmd_line_bot_ends_terminal_frontend</title>
<path fill="none" stroke="black" d="M389.747,-477.818C379.372,-441.508 363.306,-363.903 396.209,-311.94"/>
<path fill="none" stroke="black" d="M396.209,-309.94C409.93,-292.227 423.697,-271.393 434.577,-254.036"/>
<polygon fill="black" stroke="black" points="437.691,-255.655 439.987,-245.311 431.742,-251.965 437.691,-255.655"/>
</g>
<!-- cmd_line_bot_core&#45;&gt;cmd_line_bot_ends_parser -->
<g id="edge45" class="edge"><title>cmd_line_bot_core&#45;&gt;cmd_line_bot_ends_parser</title>
<path fill="none" stroke="black" d="M429.081,-481.856C438.647,-477.583 449.214,-473.237 459.209,-469.914 580.752,-429.499 701.989,-528.174 740.209,-405.922"/>
<path fill="none" stroke="black" d="M740.209,-403.922C745.82,-385.975 742.008,-365.677 736.08,-348.723"/>
<polygon fill="black" stroke="black" points="739.262,-347.245 732.402,-339.171 732.729,-349.76 739.262,-347.245"/>
</g>
<!-- cmd_line_bot_virtual_contest_watcher_avc&#45;&gt;cmd_line_bot_virtual_contest_watcher_avc_backend -->
<g id="edge4" class="edge"><title>cmd_line_bot_virtual_contest_watcher_avc&#45;&gt;cmd_line_bot_virtual_contest_watcher_avc_backend</title>
<path fill="none" stroke="black" d="M1250.17,-195.771C1283.62,-180.574 1316.5,-156.723 1305.21,-123.974"/>
</g>
<!-- cmd_line_bot_core_clb_data&#45;&gt;cmd_line_bot_virtual_contest_watcher_avc_backend -->
<g id="edge5" class="edge"><title>cmd_line_bot_core_clb_data&#45;&gt;cmd_line_bot_virtual_contest_watcher_avc_backend</title>
<path fill="none" stroke="black" d="M1145.91,-382.723C1187.02,-356.253 1253.13,-306.945 1286.21,-245.948 1312.36,-197.719 1323.1,-175.84 1305.21,-123.974"/>
</g>
<!-- cmd_line_bot_core_clb_data&#45;&gt;cmd_line_bot_virtual_contest_watcher_avc -->
<g id="edge11" class="edge"><title>cmd_line_bot_core_clb_data&#45;&gt;cmd_line_bot_virtual_contest_watcher_avc</title>
<path fill="none" stroke="black" d="M1135.21,-309.94C1134.8,-289.188 1145.19,-269.055 1157.05,-252.943"/>
<polygon fill="black" stroke="black" points="1159.93,-254.936 1163.33,-244.901 1154.42,-250.625 1159.93,-254.936"/>
</g>
<!-- cmd_line_bot_core_clb_data&#45;&gt;cmd_line_bot_ends_ipc_server -->
<g id="edge35" class="edge"><title>cmd_line_bot_core_clb_data&#45;&gt;cmd_line_bot_ends_ipc_server</title>
<path fill="none" stroke="black" d="M1067.45,-386.937C1005.02,-362.398 885.045,-316.22 781.209,-281.948 726.713,-263.962 711.11,-265.644 657.209,-245.948 652.737,-244.314 648.133,-242.512 643.547,-240.633"/>
<polygon fill="black" stroke="black" points="644.78,-237.355 634.206,-236.7 642.063,-243.806 644.78,-237.355"/>
</g>
<!-- cmd_line_bot_core_clb_data&#45;&gt;cmd_line_bot_ends_discord_frontend -->
<g id="edge28" class="edge"><title>cmd_line_bot_core_clb_data&#45;&gt;cmd_line_bot_ends_discord_frontend</title>
<path fill="none" stroke="black" d="M1122.13,-376.268C1128.77,-358.273 1135.64,-334.11 1135.21,-311.94"/>
<path fill="none" stroke="black" d="M1135.21,-309.94C1134.58,-277.99 1107.06,-255.174 1079.33,-240.257"/>
<polygon fill="black" stroke="black" points="1080.86,-237.106 1070.36,-235.69 1077.68,-243.345 1080.86,-237.106"/>
</g>
<!-- cmd_line_bot_ends_cmd_arg_backend&#45;&gt;cmd_line_bot_virtual_contest_watcher_avc_backend -->
<g id="edge6" class="edge"><title>cmd_line_bot_ends_cmd_arg_backend&#45;&gt;cmd_line_bot_virtual_contest_watcher_avc_backend</title>
<path fill="none" stroke="black" d="M686.335,-196.267C676.822,-193.008 666.805,-190.025 657.209,-187.966 604.483,-176.647 212.84,-188.536 173.209,-151.966 150.653,-131.152 147.387,-95.4561 148.888,-68.0409"/>
<polygon fill="black" stroke="black" points="152.384,-68.2279 149.666,-57.9876 145.405,-67.6876 152.384,-68.2279"/>
</g>
<!-- cmd_line_bot_ends_cmd_arg_backend&#45;&gt;cmd_line_bot_ends_example_backend -->
<g id="edge32" class="edge"><title>cmd_line_bot_ends_cmd_arg_backend&#45;&gt;cmd_line_bot_ends_example_backend</title>
<path fill="none" stroke="black" d="M685.361,-196.601C676.11,-193.393 666.437,-190.343 657.209,-187.966 542.9,-158.519 406.876,-140.481 324.342,-131.357"/>
<polygon fill="black" stroke="black" points="324.62,-127.866 314.299,-130.261 323.861,-134.825 324.62,-127.866"/>
</g>
<!-- cmd_line_bot_ends -->
<g id="node8" class="node"><title>cmd_line_bot_ends</title>
<ellipse fill="#c2a347" stroke="black" cx="1387.21" cy="-216.957" rx="54.3945" ry="21.4286"/>
<text text-anchor="middle" x="1387.21" y="-219.957" font-family="Helvetica,sans-Serif" font-size="10.00" fill="#000000">cmd_line_bot.</text>
<text text-anchor="middle" x="1387.21" y="-208.957" font-family="Helvetica,sans-Serif" font-size="10.00" fill="#000000">ends</text>
</g>
<!-- cmd_line_bot_ends&#45;&gt;cmd_line_bot_virtual_contest_watcher_avc_backend -->
<g id="edge7" class="edge"><title>cmd_line_bot_ends&#45;&gt;cmd_line_bot_virtual_contest_watcher_avc_backend</title>
<path fill="none" stroke="black" d="M1362.85,-197.969C1342.73,-181.379 1315.81,-154.715 1305.21,-123.974"/>
</g>
<!-- imgkit -->
<g id="node9" class="node"><title>imgkit</title>
<ellipse fill="#8547c2" stroke="black" cx="864.209" cy="-780.853" rx="27" ry="18"/>
<text text-anchor="middle" x="864.209" y="-778.353" font-family="Helvetica,sans-Serif" font-size="10.00" fill="#ffffff">imgkit</text>
</g>
<!-- imgkit&#45;&gt;cmd_line_bot_virtual_contest_watcher_avc -->
<g id="edge9" class="edge"><title>imgkit&#45;&gt;cmd_line_bot_virtual_contest_watcher_avc</title>
<path fill="none" stroke="black" d="M890.35,-775.526C932.662,-767.81 1017.99,-749.267 1083.21,-715.862 1204.11,-653.94 1255.37,-644.997 1324.21,-527.897 1352.01,-480.6 1344.52,-460.771 1343.21,-405.922"/>
</g>
<!-- cmd_line_bot_core_error_visualizer -->
<g id="node22" class="node"><title>cmd_line_bot_core_error_visualizer</title>
<ellipse fill="#a18635" stroke="black" cx="527.209" cy="-498.905" rx="58.8803" ry="28.9828"/>
<text text-anchor="middle" x="527.209" y="-507.405" font-family="Helvetica,sans-Serif" font-size="10.00" fill="#000000">cmd_line_bot.</text>
<text text-anchor="middle" x="527.209" y="-496.405" font-family="Helvetica,sans-Serif" font-size="10.00" fill="#000000">core.</text>
<text text-anchor="middle" x="527.209" y="-485.405" font-family="Helvetica,sans-Serif" font-size="10.00" fill="#000000">error_visualizer</text>
</g>
<!-- imgkit&#45;&gt;cmd_line_bot_core_error_visualizer -->
<g id="edge52" class="edge"><title>imgkit&#45;&gt;cmd_line_bot_core_error_visualizer</title>
<path fill="none" stroke="black" d="M847.377,-766.578C817.096,-742.535 756.608,-693.719 757.209,-687.871"/>
</g>
<!-- pyquery -->
<g id="node10" class="node"><title>pyquery</title>
<ellipse fill="#53b6b6" stroke="black" cx="1285.21" cy="-498.905" rx="30.0436" ry="18"/>
<text text-anchor="middle" x="1285.21" y="-496.405" font-family="Helvetica,sans-Serif" font-size="10.00" fill="#000000">pyquery</text>
</g>
<!-- pyquery&#45;&gt;cmd_line_bot_virtual_contest_watcher_avc -->
<g id="edge12" class="edge"><title>pyquery&#45;&gt;cmd_line_bot_virtual_contest_watcher_avc</title>
<path fill="none" stroke="black" d="M1300.22,-482.976C1315.81,-466.032 1338.56,-436.724 1343.21,-405.922"/>
<path fill="none" stroke="black" d="M1343.21,-403.922C1353.26,-337.233 1289.9,-280.749 1241.64,-248.089"/>
<polygon fill="black" stroke="black" points="1243.41,-245.06 1233.14,-242.467 1239.55,-250.9 1243.41,-245.06"/>
</g>
<!-- cmd_line_bot_core_cmd_line_bot&#45;&gt;cmd_line_bot_ends_cmd_arg_backend -->
<g id="edge43" class="edge"><title>cmd_line_bot_core_cmd_line_bot&#45;&gt;cmd_line_bot_ends_cmd_arg_backend</title>
<path fill="none" stroke="black" d="M472.209,-309.94C499.256,-227.249 575.212,-275.032 657.209,-245.948 662.705,-243.999 668.416,-241.956 674.132,-239.899"/>
<polygon fill="black" stroke="black" points="675.5,-243.126 683.718,-236.439 673.124,-236.542 675.5,-243.126"/>
</g>
<!-- cmd_line_bot_core_cmd_line_bot&#45;&gt;cmd_line_bot_ends_cron_frontend -->
<g id="edge15" class="edge"><title>cmd_line_bot_core_cmd_line_bot&#45;&gt;cmd_line_bot_ends_cron_frontend</title>
<path fill="none" stroke="black" d="M474.206,-386.143C440.924,-371.639 397.557,-351.69 382.209,-339.931 369.2,-329.964 372.066,-320.687 358.209,-311.94"/>
<path fill="none" stroke="black" d="M358.209,-309.94C351.207,-305.52 263.034,-266.182 204.924,-240.402"/>
<polygon fill="black" stroke="black" points="206.078,-237.085 195.517,-236.23 203.24,-243.484 206.078,-237.085"/>
</g>
<!-- cmd_line_bot_core_cmd_line_bot&#45;&gt;cmd_line_bot_ends_trivial_ends -->
<g id="edge18" class="edge"><title>cmd_line_bot_core_cmd_line_bot&#45;&gt;cmd_line_bot_ends_trivial_ends</title>
<path fill="none" stroke="black" d="M358.209,-309.94C356.563,-308.901 330.569,-277.693 309.232,-251.914"/>
<polygon fill="black" stroke="black" points="311.862,-249.603 302.792,-244.128 306.468,-254.064 311.862,-249.603"/>
</g>
<!-- cmd_line_bot_core_cmd_line_bot&#45;&gt;cmd_line_bot_ends_ipc_frontend -->
<g id="edge22" class="edge"><title>cmd_line_bot_core_cmd_line_bot&#45;&gt;cmd_line_bot_ends_ipc_frontend</title>
<path fill="none" stroke="black" d="M492.244,-378.5C478.188,-360.435 464.559,-335.326 472.209,-311.94"/>
<path fill="none" stroke="black" d="M472.209,-309.94C480.303,-285.193 405.918,-267.462 382.209,-245.948 371.074,-235.844 375.95,-225.94 363.209,-217.957"/>
</g>
<!-- cmd_line_bot_core_cmd_line_bot&#45;&gt;cmd_line_bot_ends_discord_frontend -->
<g id="edge29" class="edge"><title>cmd_line_bot_core_cmd_line_bot&#45;&gt;cmd_line_bot_ends_discord_frontend</title>
<path fill="none" stroke="black" d="M472.209,-309.94C488.16,-261.173 533.658,-290.738 584.209,-281.948 743.066,-254.328 787.998,-281.77 945.209,-245.948 952.169,-244.362 959.36,-242.322 966.423,-240.067"/>
<polygon fill="black" stroke="black" points="967.569,-243.375 975.942,-236.882 965.348,-236.736 967.569,-243.375"/>
</g>
<!-- cmd_line_bot_core_cmd_line_bot&#45;&gt;cmd_line_bot_ends_terminal_frontend -->
<g id="edge38" class="edge"><title>cmd_line_bot_core_cmd_line_bot&#45;&gt;cmd_line_bot_ends_terminal_frontend</title>
<path fill="none" stroke="black" d="M472.209,-309.94C477.884,-292.589 475.469,-272.702 470.984,-255.868"/>
<polygon fill="black" stroke="black" points="474.199,-254.406 467.977,-245.831 467.494,-256.415 474.199,-254.406"/>
</g>
<!-- cmd_line_bot_ends_ipc_server&#45;&gt;cmd_line_bot_ends_ipc_frontend -->
<g id="edge20" class="edge"><title>cmd_line_bot_ends_ipc_server&#45;&gt;cmd_line_bot_ends_ipc_frontend</title>
<path fill="none" stroke="black" d="M555.31,-196.596C547.183,-193.224 538.547,-190.114 530.209,-187.966 361.644,-144.534 309.237,-193.558 140.209,-151.966 134.107,-150.464 127.838,-148.505 121.692,-146.321"/>
<polygon fill="black" stroke="black" points="122.767,-142.986 112.176,-142.735 120.299,-149.536 122.767,-142.986"/>
</g>
<!-- pytypes -->
<g id="node17" class="node"><title>pytypes</title>
<ellipse fill="#85b653" stroke="black" cx="1197.21" cy="-498.905" rx="30.0436" ry="18"/>
<text text-anchor="middle" x="1197.21" y="-496.405" font-family="Helvetica,sans-Serif" font-size="10.00" fill="#000000">pytypes</text>
</g>
<!-- pytypes&#45;&gt;cmd_line_bot_ends_discord_frontend -->
<g id="edge25" class="edge"><title>pytypes&#45;&gt;cmd_line_bot_ends_discord_frontend</title>
<path fill="none" stroke="black" d="M1196.23,-480.904C1195.39,-462.408 1194.67,-431.989 1197.21,-405.922"/>
</g>
<!-- discord -->
<g id="node18" class="node"><title>discord</title>
<ellipse fill="#40c060" stroke="black" cx="1103.21" cy="-498.905" rx="28.0137" ry="18"/>
<text text-anchor="middle" x="1103.21" y="-496.405" font-family="Helvetica,sans-Serif" font-size="10.00" fill="#000000">discord</text>
</g>
<!-- discord&#45;&gt;cmd_line_bot_ends_discord_frontend -->
<g id="edge27" class="edge"><title>discord&#45;&gt;cmd_line_bot_ends_discord_frontend</title>
<path fill="none" stroke="black" d="M1124.45,-486.785C1149.31,-472.197 1188.24,-443.922 1197.21,-405.922"/>
<path fill="none" stroke="black" d="M1197.21,-403.922C1210.6,-347.224 1188.47,-324.99 1149.21,-281.948 1138.51,-270.221 1106.52,-254.13 1077.32,-241.018"/>
<polygon fill="black" stroke="black" points="1078.53,-237.726 1067.97,-236.875 1075.7,-244.126 1078.53,-237.726"/>
</g>
<!-- discord&#45;&gt;discord -->
<g id="edge62" class="edge"><title>discord&#45;&gt;discord</title>
<path fill="none" stroke="black" d="M1120.29,-513.523C1134.56,-519.77 1149.46,-514.897 1149.46,-498.905 1149.46,-486.661 1140.73,-480.935 1130.23,-481.727"/>
<polygon fill="black" stroke="black" points="1129.1,-478.403 1120.29,-484.287 1130.85,-485.182 1129.1,-478.403"/>
</g>
<!-- cmd_line_bot_ends_parser&#45;&gt;cmd_line_bot_ends_cmd_arg_backend -->
<g id="edge42" class="edge"><title>cmd_line_bot_ends_parser&#45;&gt;cmd_line_bot_ends_cmd_arg_backend</title>
<path fill="none" stroke="black" d="M723.096,-281.842C724.523,-273.64 726.106,-264.538 727.62,-255.836"/>
<polygon fill="black" stroke="black" points="731.086,-256.334 729.351,-245.882 724.189,-255.135 731.086,-256.334"/>
</g>
<!-- cmd_line_bot_core_error_visualizer&#45;&gt;cmd_line_bot_core_cmd_line_bot -->
<g id="edge48" class="edge"><title>cmd_line_bot_core_error_visualizer&#45;&gt;cmd_line_bot_core_cmd_line_bot</title>
<path fill="none" stroke="black" d="M523.849,-469.807C522.887,-461.769 521.823,-452.868 520.801,-444.325"/>
<polygon fill="black" stroke="black" points="524.249,-443.679 519.586,-434.165 517.298,-444.51 524.249,-443.679"/>
</g>
<!-- yaml -->
<g id="node23" class="node"><title>yaml</title>
<ellipse fill="#b6539d" stroke="black" cx="1047.21" cy="-686.871" rx="27" ry="18"/>
<text text-anchor="middle" x="1047.21" y="-684.371" font-family="Helvetica,sans-Serif" font-size="10.00" fill="#ffffff">yaml</text>
</g>
<!-- yaml&#45;&gt;cmd_line_bot_core_clb_data -->
<g id="edge50" class="edge"><title>yaml&#45;&gt;cmd_line_bot_core_clb_data</title>
<path fill="none" stroke="black" d="M1045.83,-668.721C1043.43,-631.337 1040.94,-540.22 1066.21,-469.914 1069.98,-459.423 1075.9,-449.033 1082.2,-439.773"/>
<polygon fill="black" stroke="black" points="1085.06,-441.786 1088.03,-431.616 1079.37,-437.714 1085.06,-441.786"/>
</g>
<!-- pygments_lexers -->
<g id="node24" class="node"><title>pygments_lexers</title>
<ellipse fill="#b83d3d" stroke="black" cx="633.209" cy="-780.853" rx="43.6818" ry="21.4286"/>
<text text-anchor="middle" x="633.209" y="-783.853" font-family="Helvetica,sans-Serif" font-size="10.00" fill="#ffffff">pygments.</text>
<text text-anchor="middle" x="633.209" y="-772.853" font-family="Helvetica,sans-Serif" font-size="10.00" fill="#ffffff">lexers</text>
</g>
<!-- pygments_lexers&#45;&gt;cmd_line_bot_core_error_visualizer -->
<g id="edge51" class="edge"><title>pygments_lexers&#45;&gt;cmd_line_bot_core_error_visualizer</title>
<path fill="none" stroke="black" d="M662.183,-764.895C698.072,-745.422 754.818,-711.135 757.209,-687.871"/>
</g>
<!-- pygments_lexers&#45;&gt;pygments_lexers -->
<g id="edge60" class="edge"><title>pygments_lexers&#45;&gt;pygments_lexers</title>
<path fill="none" stroke="black" d="M661.834,-797.025C678.945,-800.619 695.049,-795.228 695.049,-780.853 695.049,-769.398 684.823,-763.648 672.01,-763.604"/>
<polygon fill="black" stroke="black" points="671.41,-760.148 661.834,-764.682 672.147,-767.109 671.41,-760.148"/>
</g>
<!-- pygments_formatters -->
<g id="node25" class="node"><title>pygments_formatters</title>
<ellipse fill="#b83d3d" stroke="black" cx="757.209" cy="-780.853" rx="43.6818" ry="21.4286"/>
<text text-anchor="middle" x="757.209" y="-783.853" font-family="Helvetica,sans-Serif" font-size="10.00" fill="#ffffff">pygments.</text>
<text text-anchor="middle" x="757.209" y="-772.853" font-family="Helvetica,sans-Serif" font-size="10.00" fill="#ffffff">formatters</text>
</g>
<!-- pygments_formatters&#45;&gt;cmd_line_bot_core_error_visualizer -->
<g id="edge53" class="edge"><title>pygments_formatters&#45;&gt;cmd_line_bot_core_error_visualizer</title>
<path fill="none" stroke="black" d="M756.012,-759.333C755.206,-740.652 754.695,-712.334 757.209,-687.871"/>
</g>
<!-- pygments_formatters&#45;&gt;pygments_formatters -->
<g id="edge61" class="edge"><title>pygments_formatters&#45;&gt;pygments_formatters</title>
<path fill="none" stroke="black" d="M785.834,-797.025C802.945,-800.619 819.049,-795.228 819.049,-780.853 819.049,-769.398 808.823,-763.648 796.01,-763.604"/>
<polygon fill="black" stroke="black" points="795.41,-760.148 785.834,-764.682 796.147,-767.109 795.41,-760.148"/>
</g>
<!-- pygments -->
<g id="node26" class="node"><title>pygments</title>
<ellipse fill="#d92626" stroke="black" cx="434.209" cy="-780.853" rx="34.9638" ry="18"/>
<text text-anchor="middle" x="434.209" y="-778.353" font-family="Helvetica,sans-Serif" font-size="10.00" fill="#ffffff">pygments</text>
</g>
<!-- pygments&#45;&gt;cmd_line_bot_core_error_visualizer -->
<g id="edge54" class="edge"><title>pygments&#45;&gt;cmd_line_bot_core_error_visualizer</title>
<path fill="none" stroke="black" d="M458.231,-767.765C469.555,-762.391 483.37,-756.292 496.209,-751.862 609.112,-712.905 706.782,-796.139 757.209,-687.871"/>
<path fill="none" stroke="black" d="M757.209,-685.871C777.194,-642.961 649.104,-565.405 575.853,-525.361"/>
<polygon fill="black" stroke="black" points="577.23,-522.126 566.771,-520.434 573.892,-528.279 577.23,-522.126"/>
</g>
<!-- pygments&#45;&gt;pygments -->
<g id="edge59" class="edge"><title>pygments&#45;&gt;pygments</title>
<path fill="none" stroke="black" d="M454.227,-795.678C470.324,-801.607 486.94,-796.666 486.94,-780.853 486.94,-768.376 476.594,-762.668 464.322,-763.728"/>
<polygon fill="black" stroke="black" points="463.199,-760.394 454.227,-766.029 464.755,-767.219 463.199,-760.394"/>
</g>
<!-- colorama -->
<g id="node27" class="node"><title>colorama</title>
<ellipse fill="#536cb6" stroke="black" cx="538.209" cy="-780.853" rx="32.9303" ry="18"/>
<text text-anchor="middle" x="538.209" y="-778.353" font-family="Helvetica,sans-Serif" font-size="10.00" fill="#ffffff">colorama</text>
</g>
<!-- colorama&#45;&gt;cmd_line_bot_core_error_visualizer -->
<g id="edge55" class="edge"><title>colorama&#45;&gt;cmd_line_bot_core_error_visualizer</title>
<path fill="none" stroke="black" d="M557.275,-765.737C564.266,-760.945 572.386,-755.81 580.209,-751.862 654.887,-714.173 721.891,-763.699 757.209,-687.871"/>
</g>
<!-- cmd_line_bot_virtual_contest_base -->
<g id="node28" class="node"><title>cmd_line_bot_virtual_contest_base</title>
<ellipse fill="#cea93b" stroke="black" cx="1458.21" cy="-780.853" rx="58.8803" ry="28.9828"/>
<text text-anchor="middle" x="1458.21" y="-789.353" font-family="Helvetica,sans-Serif" font-size="10.00" fill="#000000">cmd_line_bot.</text>
<text text-anchor="middle" x="1458.21" y="-778.353" font-family="Helvetica,sans-Serif" font-size="10.00" fill="#000000">virtual_contest.</text>
<text text-anchor="middle" x="1458.21" y="-767.353" font-family="Helvetica,sans-Serif" font-size="10.00" fill="#000000">base</text>
</g>
<!-- cmd_line_bot_virtual_contest_virtual_contest -->
<g id="node29" class="node"><title>cmd_line_bot_virtual_contest_virtual_contest</title>
<ellipse fill="#ac9349" stroke="black" cx="1449.21" cy="-592.888" rx="58.8803" ry="28.9828"/>
<text text-anchor="middle" x="1449.21" y="-601.388" font-family="Helvetica,sans-Serif" font-size="10.00" fill="#000000">cmd_line_bot.</text>
<text text-anchor="middle" x="1449.21" y="-590.388" font-family="Helvetica,sans-Serif" font-size="10.00" fill="#000000">virtual_contest.</text>
<text text-anchor="middle" x="1449.21" y="-579.388" font-family="Helvetica,sans-Serif" font-size="10.00" fill="#000000">virtual_contest</text>
</g>
<!-- cmd_line_bot_virtual_contest_base&#45;&gt;cmd_line_bot_virtual_contest_virtual_contest -->
<g id="edge56" class="edge"><title>cmd_line_bot_virtual_contest_base&#45;&gt;cmd_line_bot_virtual_contest_virtual_contest</title>
<path fill="none" stroke="black" d="M1445.46,-752.436C1440.95,-741.336 1436.45,-728.237 1434.21,-715.862 1429.11,-687.757 1433.45,-655.69 1438.74,-631.491"/>
<polygon fill="black" stroke="black" points="1442.18,-632.171 1441.05,-621.636 1435.36,-630.577 1442.18,-632.171"/>
</g>
<!-- cmd_line_bot_virtual_contest_vcserver -->
<g id="node30" class="node"><title>cmd_line_bot_virtual_contest_vcserver</title>
<ellipse fill="#c0a040" stroke="black" cx="1502.21" cy="-686.871" rx="58.8803" ry="28.9828"/>
<text text-anchor="middle" x="1502.21" y="-695.371" font-family="Helvetica,sans-Serif" font-size="10.00" fill="#000000">cmd_line_bot.</text>
<text text-anchor="middle" x="1502.21" y="-684.371" font-family="Helvetica,sans-Serif" font-size="10.00" fill="#000000">virtual_contest.</text>
<text text-anchor="middle" x="1502.21" y="-673.371" font-family="Helvetica,sans-Serif" font-size="10.00" fill="#000000">vcserver</text>
</g>
<!-- cmd_line_bot_virtual_contest_base&#45;&gt;cmd_line_bot_virtual_contest_vcserver -->
<g id="edge58" class="edge"><title>cmd_line_bot_virtual_contest_base&#45;&gt;cmd_line_bot_virtual_contest_vcserver</title>
<path fill="none" stroke="black" d="M1471.41,-752.256C1475.59,-743.524 1480.27,-733.734 1484.7,-724.473"/>
<polygon fill="black" stroke="black" points="1487.86,-725.98 1489.02,-715.449 1481.54,-722.96 1487.86,-725.98"/>
</g>
<!-- cmd_line_bot_virtual_contest_vcserver&#45;&gt;cmd_line_bot_virtual_contest_virtual_contest -->
<g id="edge57" class="edge"><title>cmd_line_bot_virtual_contest_vcserver&#45;&gt;cmd_line_bot_virtual_contest_virtual_contest</title>
<path fill="none" stroke="black" d="M1486.59,-658.77C1481.41,-649.775 1475.55,-639.612 1470.04,-630.045"/>
<polygon fill="black" stroke="black" points="1472.92,-628.03 1464.9,-621.112 1466.86,-631.524 1472.92,-628.03"/>
</g>
</g>
</svg>
